<?xml version="1.0" encoding="utf-8"?>
<!-- Generator: Adobe Illustrator 26.3.1, SVG Export Plug-In . SVG Version: 6.00 Build 0)  -->
<svg version="1.1" id="Layer_1" xmlns="http://www.w3.org/2000/svg" xmlns:xlink="http://www.w3.org/1999/xlink" x="0px" y="0px"
	 viewBox="0 0 48 48" style="enable-background:new 0 0 48 48;" xml:space="preserve">
<style type="text/css">
	.st0{fill:#F2B614;}
</style>
<path class="st0" d="M24,9.8c-0.4,0-0.9-0.1-1.2-0.4c-0.3-0.3-0.4-0.6-0.4-1.2V3.6c0-0.4,0.1-0.8,0.4-1.1C23.1,2.1,23.6,2,24,2
	s0.9,0.1,1.2,0.4c0.3,0.3,0.4,0.6,0.4,1.1v4.7c0,0.4-0.1,0.8-0.4,1.2C24.9,9.7,24.4,9.8,24,9.8z M35.2,14.3
	c-0.3-0.3-0.5-0.7-0.5-1.2s0.2-0.8,0.5-1.2l3.5-3.3c0.2-0.2,0.7-0.4,1.1-0.4c0.4,0,0.9,0.2,1.2,0.4c0.3,0.4,0.4,0.7,0.4,1.2
	s-0.1,0.8-0.5,1.2l-3.5,3.3c-0.3,0.3-0.7,0.4-1.1,0.4C35.9,14.8,35.5,14.7,35.2,14.3z M41.5,26.6c-0.4,0-0.9-0.1-1.2-0.4
	c-0.3-0.3-0.4-0.6-0.4-1.1s0.1-0.8,0.4-1.1c0.3-0.3,0.7-0.4,1.2-0.4h4.9c0.4,0,0.9,0.1,1.2,0.4c0.3,0.3,0.4,0.6,0.4,1.1
	s-0.1,0.8-0.4,1.1c-0.3,0.3-0.7,0.4-1.2,0.4H41.5z M24,48c-0.4,0-0.9-0.1-1.2-0.4c-0.3-0.3-0.4-0.6-0.4-1.1v-4.7
	c0-0.4,0.1-0.8,0.4-1.1s0.7-0.4,1.2-0.4s0.9,0.1,1.2,0.4c0.3,0.3,0.4,0.6,0.4,1.1v4.7c0,0.4-0.1,0.8-0.4,1.1
	C24.9,47.9,24.4,48,24,48z M10.5,14.3L7,11.1c-0.2-0.4-0.4-0.8-0.4-1.3S6.8,9,7,8.7c0.4-0.2,0.8-0.4,1.2-0.4s0.9,0.2,1.2,0.4
	l3.5,3.3c0.3,0.3,0.4,0.7,0.4,1.2s-0.1,0.8-0.4,1.2s-0.8,0.4-1.2,0.4C11.2,14.7,10.8,14.5,10.5,14.3z M38.7,41.2l-3.5-3.3
	c-0.3-0.3-0.5-0.6-0.5-1c0-0.4,0.2-0.8,0.5-1c0.3-0.3,0.7-0.4,1.1-0.4c0.4,0,0.9,0.1,1.2,0.4l3.6,3.3c0.3,0.3,0.4,0.7,0.4,1.1
	c0,0.4-0.2,0.8-0.4,1.1c-0.3,0.3-0.8,0.5-1.2,0.5C39.5,41.9,39.1,41.6,38.7,41.2z M1.6,26.6c-0.4,0-0.9-0.1-1.2-0.4S0,25.4,0,25
	s0.1-0.8,0.4-1.1s0.7-0.4,1.2-0.4h4.9c0.4,0,0.9,0.1,1.2,0.4c0.3,0.3,0.4,0.6,0.4,1.1s-0.1,0.8-0.4,1.1c-0.3,0.3-0.7,0.4-1.2,0.4
	H1.6z M7,41.2c-0.3-0.3-0.4-0.7-0.4-1c0-0.3,0.2-0.8,0.4-1l3.5-3.3c0.3-0.3,0.7-0.4,1.1-0.4s0.9,0.1,1.2,0.4
	c0.3,0.3,0.4,0.7,0.4,1.1c0,0.4-0.1,0.8-0.4,1.1l-3.4,3.2c-0.3,0.3-0.8,0.4-1.2,0.4S7.4,41.6,7,41.2z M24,37.5
	c-3.6,0-6.8-1.3-9.3-3.7s-3.8-5.4-3.8-8.9s1.3-6.5,3.8-8.9s5.7-3.7,9.3-3.7s6.8,1.3,9.3,3.7s3.8,5.4,3.8,8.9s-1.3,6.5-3.8,8.9
	S27.6,37.5,24,37.5z M24,34.4c2.7,0,5-0.9,7-2.7c2-1.8,2.8-4.1,2.8-6.7s-1-4.8-2.8-6.7s-4.3-2.7-7-2.7s-5,0.9-7,2.7
	s-2.8,4.1-2.8,6.7s1,4.8,2.8,6.7C18.9,33.6,21.3,34.4,24,34.4z"/>
</svg>
