<?xml version="1.0" encoding="utf-8"?>
<!-- Generator: Adobe Illustrator 26.3.1, SVG Export Plug-In . SVG Version: 6.00 Build 0)  -->
<svg version="1.1" id="Layer_1" xmlns="http://www.w3.org/2000/svg" xmlns:xlink="http://www.w3.org/1999/xlink" x="0px" y="0px"
	 viewBox="0 0 48 48" style="enable-background:new 0 0 48 48;" xml:space="preserve">
<style type="text/css">
	.st0{fill:#FFFFFF;}
</style>
<path class="st0" d="M12.6,40c-2.9,0-5.4-1-7.5-3.1c-2-2-3.1-4.5-3.1-7.5c0-2.6,0.8-4.9,2.5-6.9s3.8-3.2,6.4-3.6
	c0.7-3.2,2.2-5.9,4.7-7.9s5.3-3.1,8.6-3.1c3.7,0,6.9,1.4,9.4,4.1s3.9,6,3.9,9.8v1.2c2.4-0.1,4.4,0.7,6.1,2.3
	c1.7,1.6,2.5,3.7,2.5,6.1c0,2.3-0.8,4.3-2.5,6s-3.6,2.5-6,2.5H12.6z"/>
</svg>
