<?xml version="1.0" encoding="utf-8"?>
<!-- Generator: Adobe Illustrator 26.3.1, SVG Export Plug-In . SVG Version: 6.00 Build 0)  -->
<svg version="1.1" id="Layer_1" xmlns="http://www.w3.org/2000/svg" xmlns:xlink="http://www.w3.org/1999/xlink" x="0px" y="0px"
	 viewBox="0 0 48 48" style="enable-background:new 0 0 48 48;" xml:space="preserve">
<style type="text/css">
	.st0{fill:#FFFFFF;}
</style>
<path class="st0" d="M12,38c-0.5,0-0.9-0.2-1.2-0.5c-0.3-0.3-0.5-0.8-0.5-1.2s0.2-0.9,0.5-1.2c0.4-0.4,0.8-0.5,1.2-0.5
	s0.9,0.2,1.2,0.5c0.3,0.3,0.5,0.8,0.5,1.2s-0.2,0.9-0.5,1.2C12.9,37.8,12.5,38,12,38z M36,38c-0.5,0-0.9-0.2-1.2-0.5
	c-0.4-0.3-0.5-0.8-0.5-1.2s0.2-0.9,0.5-1.2c0.3-0.4,0.8-0.5,1.2-0.5s0.9,0.2,1.2,0.5c0.4,0.3,0.5,0.8,0.5,1.2s-0.2,0.9-0.5,1.2
	C36.9,37.8,36.5,38,36,38z M18,46c-0.5,0-0.9-0.2-1.2-0.5c-0.3-0.3-0.5-0.8-0.5-1.2s0.2-0.9,0.5-1.2c0.4-0.4,0.8-0.5,1.2-0.5
	s0.9,0.2,1.2,0.5c0.3,0.3,0.5,0.8,0.5,1.2s-0.2,0.9-0.5,1.2C18.9,45.8,18.5,46,18,46z M24,38c-0.5,0-0.9-0.2-1.2-0.5
	c-0.3-0.3-0.5-0.8-0.5-1.2s0.2-0.9,0.5-1.2c0.4-0.4,0.8-0.5,1.2-0.5s0.9,0.2,1.2,0.5c0.3,0.3,0.5,0.8,0.5,1.2s-0.2,0.9-0.5,1.2
	C24.9,37.8,24.5,38,24,38z M30,46c-0.5,0-0.9-0.2-1.2-0.5c-0.3-0.3-0.5-0.8-0.5-1.2s0.2-0.9,0.5-1.2c0.4-0.4,0.8-0.5,1.2-0.5
	s0.9,0.2,1.2,0.5c0.3,0.3,0.5,0.8,0.5,1.2s-0.2,0.9-0.5,1.2C30.9,45.8,30.5,46,30,46z M14.5,31c-2.9,0-5.4-1-7.4-3.1S4,23.4,4,20.5
	c0-2.6,0.9-5,2.8-7.1s4.2-3.2,7-3.4c1.1-1.9,2.5-3.3,4.2-4.4C19.8,4.5,21.8,4,24,4c3,0,5.6,1,7.6,2.9s3.3,4.3,3.8,7.1
	c2.6,0.1,4.7,1,6.3,2.7c1.6,1.6,2.3,3.6,2.3,5.8c0,2.3-0.8,4.3-2.5,6c-1.7,1.7-3.7,2.5-6,2.5H14.5z"/>
</svg>
