<?xml version="1.0" encoding="utf-8"?>
<!-- Generator: Adobe Illustrator 26.3.1, SVG Export Plug-In . SVG Version: 6.00 Build 0)  -->
<svg version="1.1" id="Layer_1" xmlns="http://www.w3.org/2000/svg" xmlns:xlink="http://www.w3.org/1999/xlink" x="0px" y="0px"
	 viewBox="0 0 48 48" style="enable-background:new 0 0 48 48;" xml:space="preserve">
<style type="text/css">
	.st0{fill:#FFFFFF;}
</style>
<path class="st0" d="M22.5,44v-9.8l-7.4,7.5l-2.2-2.1l9.6-9.6v-4.5H18l-9.4,9.4l-2.2-2.1l7.3-7.3H4v-3h9.8L6.3,15l2.1-2.1l9.6,9.6
	h4.5V18l-9.4-9.4l2.1-2.2l7.3,7.3V4h3v9.7L33,6.2l2.1,2.2L25.5,18v4.5H30l9.5-9.4l2.2,2.1l-7.4,7.4H44v3h-9.7l7.4,7.5l-2,2.1
	L30,25.5h-4.5V30l9.6,9.7l-2,2.1l-7.5-7.5V44H22.5z"/>
</svg>
