<svg xmlns="http://www.w3.org/2000/svg" height="48" viewBox="0 96 960 960" width="48"><path d="M878 1016 758 896q-21 17-46.5 23.5T660 926q-70.833 0-120.417-49.618Q490 826.765 490 755.882 490 685 539.618 635.5q49.617-49.5 120.5-49.5Q731 586 780.5 635.583 830 685.167 830 756q0 26-6.5 52T800 854l120 120-42 42ZM659.859 866Q706 866 738 834.141q32-31.859 32-78T738.141 678q-31.859-32-78-32T582 677.859q-32 31.859-32 78T581.859 834q31.859 32 78 32ZM840 526h-60V276h-60v90H240v-90h-60v600h250v60H180q-26 0-43-17t-17-43V276q0-26 17-43t43-17h202q7-35 34.5-57.5T480 136q36 0 63.5 22.5T578 216h202q26 0 43 17t17 43v250ZM480 276q17 0 28.5-11.5T520 236q0-17-11.5-28.5T480 196q-17 0-28.5 11.5T440 236q0 17 11.5 28.5T480 276Z"/></svg>