<svg xmlns="http://www.w3.org/2000/svg" viewBox="0 0 162.359 100.529">
    <g data-name="logo black">
        <circle cx="3.052" cy="3.052" r="3.052" data-name="Ellipse 34" transform="translate(37.294 38.352)"/>
        <circle cx="3.052" cy="3.052" r="3.052" data-name="Ellipse 35" transform="translate(61.139 38.352)"/>
        <path d="M44.668 63.285a1.3 1.3 0 0 1-1.36-1.048 35.853 35.853 0 0 1 0-14.93 1.4 1.4 0 0 1 1.471-1.048c1.007 0 .806-1.038.806-1.038h-10c-.494 0-.665 1.038.332 1.038a1.4 1.4 0 0 1 1.471 1.048 35.85 35.85 0 0 1 0 14.93 1.287 1.287 0 0 1-1.42 1c-1.007 0-1.007 1.088-.191 1.088h9c.888-.003.899-1.04-.109-1.04z" data-name="Path 25"/>
        <path d="M68.523 63.285a1.3 1.3 0 0 1-1.36-1.048 34.726 34.726 0 0 1-.786-7.465 29.62 29.62 0 0 1 .554-6.6 11.1 11.1 0 0 1 .5-2.186c.161-.433.121-.756-.725-.756h-7.273c-.484 0-.675 1.038.332 1.038a1.4 1.4 0 0 1 1.471 1.048 35.854 35.854 0 0 1 0 14.93 1.287 1.287 0 0 1-1.42 1c-1.007 0-1.007 1.088-.191 1.088h9c.885-.012.895-1.049-.102-1.049z" data-name="Path 26"/>
        <path d="M161.629 96.076a1.4 1.4 0 0 1-1.471-1.028c-.574-3.012-.786-6.911-.786-13.2a111.611 111.611 0 0 1 .786-12.965c.111-.655.161-.886.211-1.249s-.161-.806-.977-.806h-6.629c-.876 0-.886 1.017.111 1.017a1.3 1.3 0 0 1 1.36 1.028 33.961 33.961 0 0 1 .776 6.75v2.519c-.212.332-.464.514-.735.322a5.807 5.807 0 0 0-4.11-1.43c-2.76 0-7.334 3.848-7.334 10.447s3.173 10.124 5.994 10.124c4.02 0 4.926-3.576 5.571-2.982a8.967 8.967 0 0 1-.423 1.713c-.151.423-.121.745.725.745h7.273c.482.022.663-1.005-.342-1.005zm-7.616-3.949a3.36 3.36 0 0 1-3.4.967c-1.531-.373-2.75-2.116-3.284-3.5a12.055 12.055 0 0 1-.594-3.435c-.161-2.448.594-8.029 4.11-8.029 2.075 0 3.546 2.075 4.171 4.473v5.087c-.01.9-.03 1.632-.06 2.267a5.244 5.244 0 0 1-.937 2.166z" data-name="Path 27"/>
        <path d="M61.572 45.413l-1.672-.181c-1.028 0-5.218.01-5.742.01s-.484.463-.212.635a3.424 3.424 0 0 1 1.783 3.455 25.365 25.365 0 0 1-2.2 5.138c-.2.383-.564.473-.826.151a21.324 21.324 0 0 1-2-7.183c-.02-.413-.1-.887.5-1.108s.584-1.1.01-1.1h-7.505c-1.088 0-.514.927.332 2.085a41.051 41.051 0 0 1 4.181 7.5 67.141 67.141 0 0 1 2.6 7.616c.1.353.635 2.468.715 2.7.121.343.524.383.645.04.766-3.153 1.491-4.523 3.395-6.065.927-.766.141-1.249-.312-1.5a5.483 5.483 0 0 1-1.128-.917 1.034 1.034 0 0 1 .1-.816c.353-.735 2.388-5.752 3.022-6.74a5.755 5.755 0 0 1 3.747-2.871c.95-.244.567-.849.567-.849z" data-name="Path 28"/>
        <path d="M85.034 50.059c-.685-2.851-6.951-7.8-13.439-2.418-6.729 5.853-2.045 16.824 5.188 16.824s8.049-5.641 7.676-7.384c0 0-.262-1.189-1.108 0-4.775 5.037-8.7 1.078-9.177-.212 1.007-.584 10.4-5.541 10.4-5.541a1.638 1.638 0 0 0 .46-1.269zm-5.571 2.287a55.288 55.288 0 0 1-5.51 3.113c-.312.131-.635.443-1.058-.645l-.262-.584a18.95 18.95 0 0 1-.453-1.491c-1.289-5.017 3.506-6.518 5.772-5.591s2.227 4.572 1.511 5.197z" data-name="Path 29"/>
        <path d="M140.825 50.059c-.685-2.851-6.951-7.8-13.439-2.418-6.729 5.853-2.045 16.824 5.178 16.824s8.049-5.641 7.676-7.384c0 0-.262-1.189-1.108 0-4.775 5.037-8.7 1.078-9.177-.212 1-.584 10.4-5.541 10.4-5.541s.631-.646.47-1.269zm-5.561 2.287a55.288 55.288 0 0 1-5.51 3.113c-.312.131-.635.443-1.058-.645l-.262-.584a18.95 18.95 0 0 1-.453-1.491c-1.289-5.017 3.506-6.518 5.772-5.591s2.226 4.574 1.511 5.2z" data-name="Path 30"/>
        <path d="M53.281 82.265c-.705-3.052-7.142-8.351-13.811-2.589-6.911 6.276-2.105 18.022 5.329 18.022s8.271-6.044 7.888-7.908c0 0-.272-1.269-1.138 0-4.906 5.4-8.946 1.159-9.439-.222 1.028-.625 10.678-5.934 10.678-5.934a1.758 1.758 0 0 0 .493-1.369zm-5.722 2.453a57.2 57.2 0 0 1-5.662 3.334c-.322.141-.655.484-1.088-.685l-.262-.625a19.766 19.766 0 0 1-.463-1.6c-1.33-5.369 3.606-6.981 5.944-5.994s2.266 4.9 1.531 5.57z" data-name="Path 31"/>
        <path d="M122.742 63.708c-.07-.222-.3-.413-.735-.413a1.29 1.29 0 0 1-1.35-1.038 2.445 2.445 0 0 1 .121-1.078c.554-1.561 1.37-3.022 1.884-4.6a13.969 13.969 0 0 0 .8-5.883 6.58 6.58 0 0 0-2-3.989 5.742 5.742 0 0 0-7.253-.826c-.393.252-1.158.917-1.652.9-.423-.01-.473-.252-.473-.514.03-.081.05-.161.081-.252.161-.433.121-.756-.725-.756h-7.263c-.484 0-.675 1.038.332 1.038a1.4 1.4 0 0 1 1.471 1.048 35.849 35.849 0 0 1 0 14.93 1.505 1.505 0 0 1-1.521 1.038c-.453.01-.917-.03-1.37-.05a1.5 1.5 0 0 1-1.1-.413 1.985 1.985 0 0 1-.463-.917 2.307 2.307 0 0 1 .111-1.169c.554-1.562 1.33-2.569 1.844-4.161a13.97 13.97 0 0 0 .8-5.883 6.58 6.58 0 0 0-2-3.989 5.742 5.742 0 0 0-7.253-.826c-.393.252-1.158.917-1.652.9-.413-.01-.474-.252-.474-.514.03-.081.05-.161.081-.252.161-.433.121-.756-.725-.756h-7.263c-.484 0-.675 1.038.332 1.038a1.4 1.4 0 0 1 1.471 1.048 35.851 35.851 0 0 1 0 14.93 1.287 1.287 0 0 1-1.42 1c-1 0-1.007 1.088-.191 1.088h9c.876 0 .887-1.038-.111-1.038a1.3 1.3 0 0 1-1.36-1.048 34.717 34.717 0 0 1-.786-7.465c.02-1.813-.181-4.07.907-5.631a3.253 3.253 0 0 1 2.367-1.471 2.874 2.874 0 0 1 1.964.584c2.055 1.622 2.055 6.155.161 11.887-1.209 3.4-.222 3.969-.121 4.08s.413.121.645.121l6.881-.01h8.643c.876 0 .887-1.038-.111-1.038a1.3 1.3 0 0 1-1.36-1.048 34.71 34.71 0 0 1-.786-7.465c.02-1.813-.181-4.07.917-5.631a3.253 3.253 0 0 1 2.367-1.471 2.919 2.919 0 0 1 1.964.574c2.055 1.622 2.055 6.155.161 11.887-1.209 3.4-.222 3.969-.121 4.08s.413.121.645.121l5.148-.01.01-.01c.443-.091.635-.4.554-.665z" data-name="Path 32"/>
        <path d="M66.892 86.032c-1.793-1.048-3.868-1.289-5.772-2.075-1.511-.625-3.586-1.642-3.395-3.546.252-2.559 2.881-3.163 4.7-2.962.413.05 1.894.383 1.4 1.229a2.912 2.912 0 1 0 4.715 2.277v-.05a2.8 2.8 0 0 0-.625-1.8l-.01-.01a2.385 2.385 0 0 0-.272-.282c-1.793-1.843-4.513-2.851-8.09-2.216-3.768.665-5.924 3.858-5.662 5.863s.625 4.211 8.905 7.2c3.617 1.3 4.13 4.05 2.518 5.551a4.98 4.98 0 0 1-3.375 1.108c-1.6-.04-3.526-.4-3.314-1.36a2.692 2.692 0 0 0 1.42-2.388 3.359 3.359 0 0 0-3.193-3.214 3.176 3.176 0 0 0-3.083 3.113 2.676 2.676 0 0 0 .715 1.874h-.02a9.9 9.9 0 0 0 5.1 2.871c3.375.876 7.485-.262 9.46-3.224a5.141 5.141 0 0 0 .876-2.851 5.937 5.937 0 0 0-2.998-5.108z" data-name="Path 33"/>
        <path d="M82.184 87.302c-.715-1.239-1.4-.343-.846.635a6.931 6.931 0 0 1 .544 2.4c.151 1.37.06 3.143-.987 4.171a2.082 2.082 0 0 1-1.269.554c-1.582 0-2.347-1.269-2.347-3.425 0-1.269 0-7.717.01-12.965a1.81 1.81 0 0 1 1.128-.373 2.9 2.9 0 0 1 2.508 1.612l.766-2.539h-3.632a1.237 1.237 0 0 1-.766-.242v-5.51c0 .01-.01 0-.01 0-.01-.625-.615-.836-.8.212-.594 3.234-6.165 5.682-6.639 5.843s-.453.655.212.735c.725.02 1.551-.554 1.864.937.01 3.969-.02 11.766-.02 12.542 0 1.007.322 5.329 5.541 5.329 5.508.006 6.697-6.27 4.743-9.916z" data-name="Path 34"/>
        <path d="M108.338 77.358c-.363 0-1.743.01-1.743.01-1.027 0-5.218.01-5.742.01s-.484.463-.212.635a3.424 3.424 0 0 1 1.783 3.455 25.367 25.367 0 0 1-2.2 5.138c-.2.383-.564.473-.826.151a21.325 21.325 0 0 1-2-7.183c-.02-.413-.1-.887.5-1.108s.584-1.1.01-1.1h-7.515c-1.088 0 .03.927.877 2.085.081.121.453.766.987 1.813a1.9 1.9 0 0 0-.02.2 25.368 25.368 0 0 1-2.2 5.138c-.2.383-.564.473-.826.151a21.33 21.33 0 0 1-2-7.183c-.02-.413-.1-.887.5-1.108s.584-1.1.01-1.1h-7.515c-1.088 0-.514.927.332 2.085a41.043 41.043 0 0 1 4.181 7.5 67.842 67.842 0 0 1 2.6 7.616c.1.353.635 2.468.715 2.7.121.343.524.383.645.04.766-3.153 1.491-4.523 3.395-6.065.927-.766.141-1.249-.312-1.5a5.487 5.487 0 0 1-1.128-.917 1.034 1.034 0 0 1 .1-.816c.262-.544 1.42-3.375 2.267-5.248a94.624 94.624 0 0 1 1.914 4.191 67.121 67.121 0 0 1 2.6 7.616c.1.353.635 2.468.715 2.7.121.343.524.383.645.04.766-3.153 1.491-4.523 3.395-6.065.927-.766.141-1.249-.312-1.5a5.484 5.484 0 0 1-1.128-.917 1.035 1.035 0 0 1 .1-.816c.353-.735 2.388-5.752 3.022-6.739a5.871 5.871 0 0 1 3.758-2.932 3.312 3.312 0 0 0 .856-.262c.415-.322.233-.715-.228-.715z" data-name="Path 35"/>
        <path d="M91.149 79.242c-.332-.353-1.148-1.068-1.592-1.078a.407.407 0 1 1 .1-.806c.705.01 2.8.01 2.8.01l-.121 1.753" data-name="Path 36"/>
        <path d="M113.554 76.21c-.262-.393-1.128-.111-1.571.121a14.872 14.872 0 0 0-4.392 3.344 11.886 11.886 0 0 0-2.357 10.739c1.894 6.065 8.7 9.077 13.509 5.893 3.113-2.065 4.463-5.843 4.352-9.48a13.113 13.113 0 0 0-.564-3.465c-.947-3.093-4.01-6.437-7.576-5.6a6.322 6.322 0 0 0-3.183 1.833c-1.007 1.41.252 1.34 1 1.29 4.271-.05 6.226 4.221 6.81 6.125.7 2.277 1.249 6.77-1.743 7.787-2.589.876-5.118-1.5-6.488-3.536a17.423 17.423 0 0 1-1.269-2.478c-2.166-4.906-.685-9.127 2.267-11.182 1.165-.787 1.447-.958 1.205-1.391z" data-name="Path 37"/>
        <path d="M132.553 76.21c-.262-.393-1.128-.111-1.572.121a14.871 14.871 0 0 0-4.392 3.344 11.857 11.857 0 0 0-2.357 10.739c1.894 6.065 8.7 9.077 13.509 5.893 3.113-2.065 4.463-5.843 4.352-9.48a13.123 13.123 0 0 0-.564-3.465c-.947-3.093-4.01-6.437-7.576-5.6a6.322 6.322 0 0 0-3.183 1.833c-1.007 1.41.252 1.34 1 1.29 4.271-.05 6.226 4.221 6.81 6.125.7 2.277 1.249 6.77-1.743 7.787-2.589.876-5.118-1.5-6.488-3.536a17.411 17.411 0 0 1-1.269-2.478c-2.166-4.906-.685-9.127 2.267-11.182 1.166-.787 1.448-.958 1.206-1.391z" data-name="Path 38"/>
        <path d="M41.928 68.322h-.121c-.4.01-2.105.01-2.105.01H38l-3.627.01h-1.159c-.594 0-.544.524-.242.725a4.906 4.906 0 0 1 2.6 4.533c-.03 1.148-1.924 10.457-2.911 14.446-.111.232-.312.292-.423-.01-.514-1.592-.957-3.486-1.491-5.42-1.169-4.211-2.408-8.654-2.982-11.222l-.03-.121c-.05-.2-.081-.393-.121-.564a1.175 1.175 0 0 1 .514-1.279l.06-.03c.292-.161.745-.232.907-.353.423-.322.242-.715-.222-.715h-.121c-.4.01-2.105.01-2.105.01h-1.7l-3.627.01h-1.162c-.594 0-.544.524-.242.725a5.343 5.343 0 0 1 2.337 2.73l.06.2.584 1.964a3.07 3.07 0 0 1 .04 1.511c-.826 3.133-2.4 8.815-3.143 12.008-.091.2-.262.272-.373.1-.463-1.5-.866-3.214-1.35-4.966-.8-2.861-1.612-5.823-2.247-8.23-.252-1.733.7-1.763 1.269-2.418.5-.544-.161-.786-.383-.766-2.458.081-4.594-3.183-8.744-4.261a5.286 5.286 0 0 0-1.259-.121A6.7 6.7 0 0 0 0 73.511a6.327 6.327 0 0 0 5.238 6.457 4.006 4.006 0 0 0 4.322-2.529s.3-.917-.151-1.038c-.433-.05-.484.443-.6.947a3.035 3.035 0 0 1-3.627 1.7 5.1 5.1 0 0 1-4.12-4.916 4.926 4.926 0 0 1 5.037-5.007A3.692 3.692 0 0 1 9.262 71.2c1.662 5.037 5.46 18.889 6.639 25.5.252 1.39.353 3.2.423 3.476a.371.371 0 0 0 .725.091c1.088-3.516 2.448-5.309 4.7-6.921 1.1-.806 1-.615-.252-1.723a4.521 4.521 0 0 1-.887-1.118 1.623 1.623 0 0 1-.141-1.108c.514-2.468 2.105-8.079 2.992-11.484a.315.315 0 0 1 .6-.05l.06.2c1.844 6.417 4.009 14.7 4.564 18.7.2 1.4.222 3.143.292 3.425.111.4.564.474.725.091 1.088-3.516 2.448-5.309 4.7-6.921 1.1-.806 1-.615-.252-1.723a4 4 0 0 1-.584-.655 1.53 1.53 0 0 1-.2-1.158c.756-3.506 2.488-11.414 3.032-13.167a15.807 15.807 0 0 1 3.566-6.357 5.379 5.379 0 0 1 1.279-.887c.292-.161.745-.232.907-.353.433-.343.25-.736-.222-.736z" data-name="Path 39"/>
        <path d="M39.612 36.65h-.121c-.4.01-2.105.01-2.105.01h-1.7l-3.627.01H30.9c-.594 0-.544.524-.242.715a4.888 4.888 0 0 1 2.6 4.513c-.03 1.028-2.257 8.452-3.445 12.875a.173.173 0 0 1-.232-.03c-.01-.01-.01-.02-.02-.03-.463-1.491-1.169-3.163-1.652-4.916-.8-2.841-1.612-5.793-2.247-8.19-.252-1.723.7-1.763 1.269-2.408.5-.544-.161-.786-.383-.766-2.458.081-4.594-3.163-8.744-4.241a4.808 4.808 0 0 0-1.259-.111 6.686 6.686 0 0 0-6.733 6.645 6.3 6.3 0 0 0 5.238 6.427 4.013 4.013 0 0 0 4.322-2.508s.3-.907-.151-1.028c-.433-.05-.484.443-.6.937a3.041 3.041 0 0 1-3.627 1.692 5.09 5.09 0 0 1-4.12-4.9 4.915 4.915 0 0 1 5.037-4.987 3.7 3.7 0 0 1 3.163 2.065c1.682 5.017 5.772 18.778 6.951 25.356.252 1.39.443 2.327.514 2.6a.371.371 0 0 0 .725.091c1.088-3.506 2.357-4.423 4.614-6.034 1.1-.8 1-.6-.252-1.723a4.715 4.715 0 0 1-.887-1.108 1.543 1.543 0 0 1-.171-.554c.937-3.828 3.012-10.558 3.506-12.149a15.807 15.807 0 0 1 3.566-6.337 5.063 5.063 0 0 1 1.279-.876c.292-.161.745-.232.907-.353.43-.295.248-.687-.214-.687z" data-name="Path 40"/>
        <path d="M80.814 26.303a8.137 8.137 0 0 1-5-1.652.367.367 0 0 1 .443-.584 7.422 7.422 0 0 0 4.553 1.5 7.622 7.622 0 0 0 4.543-1.491.356.356 0 0 1 .5.081.37.37 0 0 1-.081.514 8.267 8.267 0 0 1-4.966 1.632z" data-name="Path 41"/>
        <path d="M74.185 22.818a.369.369 0 0 1-.3-.161 8.324 8.324 0 0 1-1.491-4.775 8.417 8.417 0 1 1 15.4 4.694.367.367 0 0 1-.625-.383c.01-.01.01-.02.02-.03a7.688 7.688 0 1 0-14.073-4.281 7.453 7.453 0 0 0 1.36 4.352.367.367 0 0 1-.091.5.214.214 0 0 1-.2.081z" data-name="Path 42"/>
        <path d="M80.884 21.246a2.206 2.206 0 1 1 2.206-2.206 2.206 2.206 0 0 1-2.206 2.206zm0-3.778a1.572 1.572 0 1 0 1.572 1.572 1.574 1.574 0 0 0-1.572-1.572z" data-name="Path 43"/>
        <path d="M79.303 18.133a.361.361 0 0 1-.363-.363v-7.756a.363.363 0 0 1 .725 0v7.757a.361.361 0 0 1-.362.362z" data-name="Path 44"/>
        <path d="M82.476 18.224a.361.361 0 0 1-.363-.363v-7.817a.363.363 0 0 1 .725 0v7.817a.361.361 0 0 1-.363.363z" data-name="Path 45"/>
        <path d="M80.895 21.417a14.926 14.926 0 0 1-8.019-2.085.367.367 0 0 1 .383-.625c.01.01.02.01.03.02 3.949 2.629 11.585 2.589 15.121-.081a.367.367 0 0 1 .443.584 13.623 13.623 0 0 1-7.958 2.186z" data-name="Path 46"/>
        <path d="M82.516 18.325a.377.377 0 0 1-.373-.363.355.355 0 0 1 .332-.363 13.8 13.8 0 0 0 5.954-1.894.373.373 0 0 1 .5.121.364.364 0 0 1-.121.5 14.447 14.447 0 0 1-6.266 2l-.03-.01z" data-name="Path 47"/>
        <path d="M79.101 18.375h-.04a16.546 16.546 0 0 1-6.024-1.975.365.365 0 0 1 .343-.645 15.765 15.765 0 0 0 5.762 1.894.364.364 0 0 1-.04.725z" data-name="Path 48"/>
        <circle cx=".604" cy=".604" r=".604" data-name="Ellipse 36" transform="translate(80.27 10.83)"/>
        <circle cx=".604" cy=".604" r=".604" data-name="Ellipse 37" transform="translate(80.27 12.834)"/>
        <circle cx=".604" cy=".604" r=".604" data-name="Ellipse 38" transform="translate(80.27 14.829)"/>
        <ellipse cx=".574" cy=".594" data-name="Ellipse 39" rx=".574" ry=".594" transform="translate(84.249 18.476)"/>
        <ellipse cx=".574" cy=".594" data-name="Ellipse 40" rx=".574" ry=".594" transform="translate(86.495 17.68)"/>
        <ellipse cx=".574" cy=".594" data-name="Ellipse 41" rx=".574" ry=".594" transform="translate(76.361 18.456)"/>
        <ellipse cx=".574" cy=".594" data-name="Ellipse 42" rx=".574" ry=".594" transform="translate(74.104 17.7)"/>
        <path d="M80.944 24.893c-9.389 0-19.1-2.045-19.1-5.47 0-2.337 4.3-4.231 11.495-5.067l.564-.06-.635 1.934-.222.04c-4.584.766-6.206 2.015-6.206 2.841 0 1.622 5.732 3.425 13.973 3.425s13.973-1.8 13.973-3.425c0-.826-1.632-2.075-6.216-2.841l-.222-.04-.635-1.954.564.06c5.692.645 11.766 2.317 11.766 5.077-.01 3.435-9.721 5.48-19.1 5.48zm-8.089-9.742c-7.1.9-10.286 2.78-10.286 4.271 0 2.287 7.384 4.745 18.375 4.745s18.375-2.448 18.375-4.745c0-1.773-4.312-3.516-10.568-4.292l.151.463c2.569.453 6.609 1.481 6.609 3.516 0 2.7-7.576 4.15-14.7 4.15s-14.7-1.451-14.7-4.15c0-2.055 4.03-3.083 6.6-3.526l.141-.433z" data-name="Path 49"/>
        <path d="M83.749 10.779c-1.239-1-2.357-3.324-1.813-4.322a.94.94 0 0 1 .705-.5 3.618 3.618 0 0 1 2.3 1.038V3.606c-.957.776-1.974 1.249-2.831.383-.675-.685.081-2.307.635-3.264h-3.727c.977 1.763 1 2.8.665 3.2-.6.715-1.481.615-2.8-.343v3.43a3.668 3.668 0 0 1 2.267-1.028 1.015 1.015 0 0 1 .745.494c.715 1.209-.826 3.193-1.854 4.181l-.5-.524c1.148-1.108 2.116-2.639 1.733-3.284a.245.245 0 0 0-.212-.141c-.524-.071-1.662.766-2.287 1.37l-.615.6v-6.6l.594.484c1.854 1.511 2.246 1.048 2.377.9.081-.131.131-1-1.048-2.911L77.71 0h6.339l-.363.564c-.735 1.148-1.35 2.639-1.068 2.921.332.332.816.564 2.428-.947l.615-.574v6.69l-.615-.594c-.645-.625-1.773-1.471-2.3-1.39a.227.227 0 0 0-.181.131c-.272.5.453 2.458 1.632 3.405z" data-name="Path 50"/>
        <path d="M80.854 7.253a2.116 2.116 0 1 1 2.116-2.116 2.115 2.115 0 0 1-2.116 2.116zm0-3.6a1.481 1.481 0 1 0 1.481 1.481 1.483 1.483 0 0 0-1.481-1.481z" data-name="Path 51"/>
    </g>
</svg>
