<svg width="145" height="49" viewBox="0 0 145 49" fill="none" xmlns="http://www.w3.org/2000/svg">
<path d="M26.1386 33.2797V24.3845H19.7559V20.7804H37.0046V24.3845H30.7738V33.2797H26.1386ZM37.0046 6.74756V10.3516H24.391V13.7257H37.0046V17.3297H21.5795C20.9716 17.3297 20.5157 17.1764 20.2118 16.7929C19.9078 16.4095 19.7559 15.8728 19.7559 15.0293V6.74756H37.0046Z" fill="#3DB349"/>
<path d="M55.3931 3.98748H42.8555V0H60.1802V10.8889H47.6426V13.4961H60.1042V17.3302H44.6791C44.0712 17.3302 43.6153 17.1002 43.3114 16.7168C43.0074 16.2567 42.8555 15.4132 42.8555 14.3396V6.59468H55.3931V3.98748ZM49.2383 33.2802V24.385H42.8555V20.7809H60.1042V24.385H53.8734V33.2802H49.2383Z" fill="#3DB349"/>
<path d="M71.3501 6.74756V13.9557H83.7357V17.5598H68.5386C67.9307 17.5598 67.4748 17.4064 67.1709 17.0997C66.8669 16.7163 66.715 16.1795 66.715 15.336V6.74756H71.3501ZM72.9458 33.3563V24.4612H66.563V20.8571H83.8117V24.4612H77.5809V33.3563H72.9458Z" fill="#1652A1"/>
<path d="M106.988 21.9307C106.988 22.7742 106.836 23.3876 106.532 23.771C106.228 24.0778 105.772 24.2311 105.012 24.2311H91.5625C90.8787 24.2311 90.4228 24.0778 90.1188 23.771C89.8149 23.3876 89.5869 22.7742 89.5869 21.9307V6.74756H94.45V13.4189H102.125V6.74756H106.988V21.9307ZM94.45 20.4737H102.125V17.1764H94.45V20.4737ZM111.243 6.74756H115.346V24.4612H111.243V6.74756Z" fill="#1652A1"/>
<path d="M34.2695 47.697V38.6484H35.9412V42.6359L38.9806 38.6484H41.0322L37.4609 43.096L41.0322 47.6203H38.9046L35.8652 43.7095V47.6203H34.2695V47.697Z" fill="#7A7B7E"/>
<path d="M42.4 41.3321C42.6279 40.7953 43.0079 40.2586 43.4638 39.7985C43.9197 39.3384 44.3756 39.0316 44.9835 38.8016C45.5154 38.5716 46.1233 38.4949 46.7311 38.4949C47.339 38.4949 47.9469 38.5716 48.5548 38.8016C49.0867 39.0316 49.6186 39.3384 50.0745 39.7985C50.5304 40.2586 50.9103 40.7187 51.1383 41.3321C51.3663 41.8689 51.5182 42.4824 51.5182 43.0958C51.5182 43.7093 51.4422 44.3227 51.2143 44.8595C50.9863 45.3963 50.6824 45.8564 50.3025 46.3165C49.8466 46.7766 49.3146 47.16 48.7068 47.4667C48.0989 47.6968 47.491 47.8501 46.8071 47.8501C46.1233 47.8501 45.5154 47.6968 44.9075 47.4667C44.2996 47.16 43.7677 46.8533 43.3118 46.3165C42.9319 45.8564 42.6279 45.3963 42.476 44.8595C42.248 44.3227 42.172 43.7093 42.172 43.0958C42.02 42.4824 42.172 41.8689 42.4 41.3321ZM43.9957 44.3227C44.1476 44.7061 44.3756 45.0129 44.6035 45.3196C44.9075 45.6263 45.2114 45.8564 45.5914 46.0097C45.9713 46.1631 46.3512 46.2398 46.7311 46.2398C47.567 46.2398 48.3268 45.9331 48.8587 45.3196C49.4666 44.7061 49.6946 44.016 49.6946 43.0958C49.6946 42.7124 49.6186 42.329 49.4666 42.0223C49.3146 41.7155 49.0867 41.4088 48.8587 41.1021C48.5548 40.7953 48.2509 40.4886 47.8709 40.3352C47.491 40.1819 47.1111 40.1052 46.6552 40.1052C46.2752 40.1052 45.8953 40.1819 45.5154 40.3352C45.1354 40.4886 44.8315 40.7187 44.6035 40.9487C44.2996 41.2554 44.0717 41.5622 43.9197 41.9456C43.7677 42.329 43.6917 42.7124 43.6917 43.0958C43.7677 43.5559 43.8437 43.9393 43.9957 44.3227Z" fill="#7A7B7E"/>
<path d="M58.3573 43.0193C57.9773 43.4794 57.4454 43.8628 56.8375 44.0162L59.573 47.6203H57.4454L54.9379 44.1696H54.8619V47.6203H53.1143V38.6484H55.3938C55.9257 38.6484 56.3056 38.6484 56.6096 38.7251C56.9895 38.8018 57.3694 38.8785 57.5974 39.0318C57.9773 39.2619 58.2813 39.5686 58.5092 40.0287C58.7372 40.4121 58.8892 40.8722 58.8892 41.409C58.8892 42.0225 58.7372 42.5592 58.3573 43.0193ZM56.8375 40.4888C56.6096 40.3354 56.1537 40.1821 55.6218 40.1821H54.8619V42.6359H55.6218C56.2297 42.6359 56.6096 42.5592 56.9135 42.3292C57.1415 42.1758 57.2935 41.8691 57.2935 41.409C57.2175 41.0256 57.0655 40.7189 56.8375 40.4888Z" fill="#7A7B7E"/>
<path d="M60.7129 47.697V38.6484H65.7279V40.1821H62.3846V42.3292H65.7279V43.8628H62.3846V46.0099H65.7279V47.6203H60.7129V47.697Z" fill="#7A7B7E"/>
<path d="M68.2348 47.697H66.4111L69.9824 38.6484H71.5022L75.1495 47.697H73.3258L72.338 45.2431H69.2226L68.2348 47.697ZM70.8183 41.1023L69.8305 43.5561H71.7301L70.8183 41.1023Z" fill="#7A7B7E"/>
<path d="M80.4688 47.697V38.6484H82.6723L85.1039 44.9364L87.4594 38.6484H89.663V47.697H88.0673V41.3323L85.6358 47.697H84.42L81.9885 41.409V47.697H80.4688Z" fill="#7A7B7E"/>
<path d="M91.7906 41.3321C92.0186 40.7953 92.3985 40.2586 92.8544 39.7985C93.3103 39.3384 93.7662 39.0316 94.3741 38.8016C94.906 38.5716 95.5139 38.4949 96.1218 38.4949C96.7297 38.4949 97.3375 38.5716 97.9454 38.8016C98.4773 39.0316 99.0092 39.3384 99.4651 39.7985C99.921 40.2586 100.301 40.7187 100.529 41.3321C100.757 41.8689 100.909 42.4824 100.909 43.0958C100.909 43.7093 100.833 44.3227 100.605 44.8595C100.377 45.3963 100.073 45.8564 99.6931 46.3165C99.2372 46.7766 98.7053 47.16 98.0974 47.4667C97.4895 47.6968 96.8816 47.8501 96.1978 47.8501C95.5139 47.8501 94.906 47.6968 94.2981 47.4667C93.6902 47.16 93.1583 46.8533 92.7024 46.3165C92.3225 45.8564 92.0186 45.3963 91.8666 44.8595C91.6386 44.3227 91.5626 43.7093 91.5626 43.0958C91.4107 42.4824 91.5626 41.8689 91.7906 41.3321ZM93.3863 44.3227C93.5383 44.7061 93.7662 45.0129 93.9942 45.3196C94.2981 45.6263 94.6021 45.8564 94.982 46.0097C95.3619 46.1631 95.7418 46.2398 96.1218 46.2398C96.9576 46.2398 97.7175 45.9331 98.2494 45.3196C98.8572 44.7061 99.0852 44.016 99.0852 43.0958C99.0852 42.7124 99.0092 42.329 98.8572 42.0223C98.7053 41.7155 98.4773 41.4088 98.2494 41.1021C97.9454 40.7953 97.6415 40.4886 97.2616 40.3352C96.8816 40.1819 96.5017 40.1052 96.0458 40.1052C95.6659 40.1052 95.2859 40.1819 94.906 40.3352C94.5261 40.4886 94.2221 40.7187 93.9942 40.9487C93.6902 41.2554 93.4623 41.5622 93.3103 41.9456C93.1583 42.329 93.0823 42.7124 93.0823 43.0958C93.1583 43.5559 93.2343 43.9393 93.3863 44.3227Z" fill="#7A7B7E"/>
<path d="M106.988 39.3386C107.52 39.7987 107.748 40.4121 107.748 41.2556C107.748 41.5624 107.672 41.7924 107.596 42.0991C107.444 42.3292 107.292 42.5592 107.064 42.7893C107.444 43.0193 107.748 43.2494 107.9 43.6328C108.128 44.0162 108.203 44.3996 108.203 44.8597C108.203 45.2431 108.128 45.7032 107.976 46.0866C107.824 46.47 107.596 46.7768 107.292 47.0068C106.988 47.2369 106.608 47.4669 106.152 47.5436C105.848 47.6203 105.392 47.697 104.86 47.697H102.581V38.6484H104.784C105.696 38.6484 106.456 38.8785 106.988 39.3386ZM105.088 46.1633C105.62 46.1633 106 46.0866 106.228 45.9333C106.456 45.7799 106.608 45.4732 106.608 45.0898C106.608 44.6297 106.456 44.3229 106.228 44.0929C106 43.8628 105.62 43.7862 105.088 43.7862H104.252V46.24H105.088V46.1633ZM104.404 42.2525C105.012 42.2525 105.468 42.1758 105.696 42.0225C105.924 41.8691 106.076 41.5624 106.076 41.179C106.076 40.7955 106 40.5655 105.772 40.4121C105.544 40.2588 105.24 40.1821 104.708 40.1821H104.176V42.1758H104.404V42.2525Z" fill="#7A7B7E"/>
<path d="M109.875 47.697V38.6484H111.547V47.697H109.875Z" fill="#7A7B7E"/>
<path d="M113.522 47.697V38.6484H115.194V46.0866H118.082V47.697H113.522Z" fill="#7A7B7E"/>
<path d="M119.601 47.697V38.6484H121.273V47.697H119.601Z" fill="#7A7B7E"/>
<path d="M124.54 47.696V40.2578H122.717V38.7241H127.96V40.2578H126.136V47.696H124.54Z" fill="#7A7B7E"/>
<path d="M133.203 47.696H131.531V44.3986L128.72 38.7241H130.619L132.443 42.5582L134.191 38.7241H136.09L133.279 44.4753V47.696H133.203Z" fill="#7A7B7E"/>
<path d="M21.048 49C18.4645 49 16.4129 46.9296 16.4129 44.3224C16.4129 42.2519 17.7806 40.4116 19.6802 39.8748L19.2243 37.881L12.0817 44.6291C12.0057 44.7058 11.9297 44.7058 11.8537 44.7058H9.27023C9.11826 47.1596 7.06665 49 4.63512 49C2.05161 49 0 46.9296 0 44.3224C0 41.7152 2.05161 39.6447 4.63512 39.6447C5.54694 39.6447 6.45877 39.9515 7.21862 40.4116L9.57417 37.2676L8.81432 34.5837C8.81432 34.4303 8.81432 34.3536 8.8903 34.277C8.96629 34.2003 9.04227 34.1236 9.19425 34.1236H11.3218C11.5498 34.1236 11.7018 34.277 11.7018 34.507C11.7018 34.7371 11.5498 34.8904 11.3218 34.8904H9.65016L10.1821 36.8075H18.9964L18.5405 34.6604H16.7928C16.5648 34.6604 16.4129 34.507 16.4129 34.277C16.4129 34.0469 16.5648 33.8936 16.7928 33.8936H18.8444C18.9964 33.8936 19.1483 34.0469 19.2243 34.2003L20.4401 39.7981C20.6681 39.7981 20.896 39.7214 21.124 39.7214C23.7075 39.7214 25.7591 41.7918 25.7591 44.399C25.7591 47.0062 23.6315 49 21.048 49ZM19.8322 40.6416C18.3125 41.1784 17.1727 42.6353 17.1727 44.399C17.1727 46.5461 18.9204 48.3098 21.048 48.3098C23.1756 48.3098 24.9232 46.5461 24.9232 44.399C24.9232 42.2519 23.1756 40.4882 21.048 40.4882C20.896 40.4882 20.744 40.4882 20.5921 40.4882L21.4279 44.3224C21.5039 44.5524 21.3519 44.7058 21.124 44.7825C20.896 44.8591 20.744 44.7058 20.6681 44.4757L19.8322 40.6416ZM4.55913 40.4116C2.43154 40.4116 0.683869 42.1753 0.683869 44.3224C0.683869 46.4695 2.43154 48.2332 4.55913 48.2332C6.61074 48.2332 8.28242 46.6995 8.43439 44.7058H4.7111C4.55913 44.7058 4.40716 44.6291 4.40716 44.4757C4.33117 44.3224 4.33117 44.169 4.40716 44.0923L6.68672 41.025C6.07884 40.6416 5.31898 40.4116 4.55913 40.4116ZM9.19425 43.9389H11.3218L9.80213 38.1878L7.75052 40.8716C8.58636 41.6385 9.11826 42.712 9.19425 43.9389ZM5.47096 43.9389H8.43439C8.35841 43.0188 7.90249 42.1752 7.29461 41.4851L5.47096 43.9389ZM10.334 37.5743L12.0057 43.6322L18.4645 37.5743H10.334Z" fill="#9B9B9A"/>
<path d="M124.616 33.6638C124.389 33.6638 124.237 33.5104 124.237 33.2803C124.237 33.0503 123.857 28.2193 127.58 25.8422C127.2 24.3852 126.972 20.7811 126.896 18.7874C126.364 20.6278 125.528 21.8547 124.313 22.4681C122.261 23.5417 120.057 22.4681 119.905 22.3914C119.753 22.3148 119.601 22.0847 119.753 21.8547C119.905 21.6246 120.057 21.5479 120.285 21.7013C120.285 21.7013 122.261 22.6215 124.009 21.778C125.224 21.1645 126.06 19.7076 126.44 17.4838C126.44 17.4071 126.516 17.2537 126.592 17.2537C126.668 17.177 128.872 15.9501 130.847 16.8703C132.443 17.6371 133.431 19.5542 133.887 22.4681C133.887 22.6982 133.735 22.8515 133.583 22.9282C133.355 22.9282 133.203 22.8515 133.127 22.6215C132.747 19.9376 131.835 18.2506 130.543 17.5605C130.391 17.4838 130.239 17.4071 130.087 17.4071C130.163 17.7138 130.239 18.0206 130.315 18.2506C131.227 21.3179 132.139 24.1551 128.34 26.1489C128.264 26.1489 128.188 26.2256 128.188 26.2256C128.188 26.2256 128.188 26.2256 128.112 26.2256C124.616 28.296 124.92 33.0503 124.92 33.0503C124.996 33.5104 124.844 33.6638 124.616 33.6638ZM127.656 17.8672C127.732 19.7842 127.884 23.9251 128.264 25.5354C131.303 23.8484 130.619 21.6246 129.707 18.634C129.631 18.2506 129.48 17.8672 129.404 17.4838L127.656 17.8672ZM132.823 32.8203C132.747 32.8203 132.595 32.7436 132.519 32.6669C129.783 29.5996 128.872 27.2991 128.796 27.2224C128.72 26.9924 128.796 26.839 129.024 26.7623C129.252 26.6857 129.404 26.7623 129.48 26.9924C129.48 26.9924 130.391 29.2929 133.051 32.2068C133.203 32.3602 133.203 32.5902 133.051 32.7436C132.975 32.8203 132.899 32.8203 132.823 32.8203ZM128.264 15.7201C126.972 15.7201 125.984 14.7232 125.984 13.4196C125.984 12.116 126.972 11.1191 128.264 11.1191C129.556 11.1191 130.543 12.116 130.543 13.4196C130.543 14.7232 129.556 15.7201 128.264 15.7201ZM128.264 11.886C127.428 11.886 126.744 12.5761 126.744 13.4196C126.744 14.2631 127.428 14.9533 128.264 14.9533C129.1 14.9533 129.783 14.2631 129.783 13.4196C129.783 12.5761 129.1 11.886 128.264 11.886Z" fill="#9B9B9A"/>
<path d="M4.71098 33.6639C4.48303 33.6639 4.33105 33.5106 4.33105 33.3572V33.2805C4.33105 32.9738 4.33105 31.8236 4.55901 30.2132C4.55901 29.9832 4.78697 29.8298 5.01492 29.9065C5.24288 29.9065 5.39485 30.1365 5.31887 30.3666C5.09091 31.9002 5.09091 32.9738 5.09091 33.2805C5.09091 33.4339 4.93894 33.6639 4.71098 33.6639ZM5.39485 28.3729H5.31887C5.09091 28.2962 5.01492 28.1428 5.01492 27.9128C5.31887 26.8392 5.62281 25.8423 6.07872 24.9988C6.15471 24.7688 6.38266 24.6921 6.61062 24.8455C6.76259 24.8455 6.83858 25.0755 6.76259 25.2289C6.38266 26.0724 6.00274 27.0692 5.77478 28.0661C5.77478 28.2195 5.62281 28.3729 5.39485 28.3729ZM7.52245 23.4652C7.44646 23.4652 7.37047 23.4652 7.29449 23.3885C7.14252 23.2351 7.06653 23.0051 7.2185 22.8517C7.82639 21.9315 8.51026 21.1647 9.19413 20.3979C9.3461 20.2445 9.57405 20.2445 9.72603 20.3979C9.878 20.5512 9.878 20.7813 9.72603 20.9347C9.04216 21.6248 8.43427 22.3916 7.82639 23.2351C7.7504 23.3885 7.67442 23.4652 7.52245 23.4652ZM11.2457 19.7077C11.0938 19.7077 11.0178 19.6311 10.9418 19.5544C10.8658 19.401 10.8658 19.171 11.0938 19.0176C11.9296 18.4808 12.9174 18.0207 13.9052 17.714C14.1332 17.6373 14.2852 17.7907 14.3611 17.944C14.4371 18.1741 14.2852 18.3275 14.1332 18.4041C13.1454 18.7109 12.3095 19.0943 11.4737 19.6311C11.3977 19.7077 11.3217 19.7077 11.2457 19.7077Z" fill="#9B9B9A"/>
<path d="M141.333 41.409C141.257 41.409 141.181 41.409 141.105 41.3323C140.953 41.1789 140.877 40.9489 141.029 40.7955C141.637 39.952 142.169 39.1085 142.625 38.265C142.701 38.1117 142.929 38.035 143.157 38.1117C143.309 38.1883 143.385 38.4184 143.309 38.6484C142.853 39.4919 142.321 40.4121 141.637 41.2556C141.561 41.409 141.409 41.409 141.333 41.409ZM143.841 36.7314C143.765 36.7314 143.765 36.7314 143.689 36.7314C143.461 36.6547 143.385 36.4246 143.461 36.2713C143.841 35.2744 144.069 34.3542 144.145 33.3573C144.145 33.1273 144.373 32.9739 144.601 33.0506C144.829 33.0506 144.981 33.2807 144.905 33.5107C144.753 34.5076 144.525 35.5811 144.145 36.578C144.145 36.6547 143.993 36.7314 143.841 36.7314ZM144.677 31.517C144.449 31.517 144.297 31.3636 144.297 31.1336C144.221 30.1367 144.069 29.2165 143.689 28.2196C143.613 27.9896 143.765 27.8362 143.917 27.7595C144.145 27.6829 144.297 27.8362 144.373 27.9896C144.677 28.9865 144.905 30.06 144.981 31.0569C145.057 31.2869 144.905 31.4403 144.677 31.517ZM143.157 26.3793C143.005 26.3793 142.929 26.3026 142.853 26.1492C142.397 25.3057 141.865 24.4622 141.181 23.6954C141.029 23.542 141.105 23.312 141.257 23.1586C141.409 23.0052 141.637 23.0819 141.789 23.2353C142.473 24.0788 143.081 24.9223 143.537 25.8425C143.613 25.9958 143.537 26.2259 143.385 26.3793C143.309 26.3793 143.233 26.3793 143.157 26.3793ZM139.889 22.1617C139.814 22.1617 139.738 22.1617 139.662 22.085C138.37 20.8581 137.382 20.168 137.382 20.168C137.23 20.0913 137.154 19.7846 137.23 19.6312C137.306 19.4778 137.61 19.4012 137.762 19.4778C137.838 19.4778 138.902 20.168 140.193 21.4716C140.345 21.6249 140.345 21.855 140.193 22.0084C140.117 22.085 140.041 22.1617 139.889 22.1617Z" fill="#9B9B9A"/>
</svg>
