<?xml version="1.0" encoding="utf-8"?>
<!-- Generator: Adobe Illustrator 26.3.1, SVG Export Plug-In . SVG Version: 6.00 Build 0)  -->
<svg version="1.1" id="Layer_1" xmlns="http://www.w3.org/2000/svg" xmlns:xlink="http://www.w3.org/1999/xlink" x="0px" y="0px"
	 viewBox="0 0 48 48" style="enable-background:new 0 0 48 48;" xml:space="preserve">
<style type="text/css">
	.st0{fill:#FFFFFF;}
</style>
<path class="st0" d="M24,9.5c-0.4,0-0.8-0.1-1.1-0.4c-0.3-0.3-0.4-0.6-0.4-1.1V3.5c0-0.4,0.1-0.8,0.4-1.1C23.2,2.1,23.6,2,24,2
	s0.8,0.1,1.1,0.4c0.3,0.3,0.4,0.6,0.4,1.1V8c0,0.4-0.1,0.8-0.4,1.1C24.8,9.4,24.4,9.5,24,9.5z M34.3,13.8c-0.3-0.3-0.5-0.7-0.5-1.1
	c0-0.4,0.2-0.8,0.5-1.1l3.2-3.2C37.7,8.1,38.1,8,38.5,8c0.4,0,0.8,0.2,1,0.5C39.9,8.8,40,9.1,40,9.5s-0.1,0.8-0.5,1.1l-3.2,3.2
	c-0.3,0.3-0.6,0.4-1,0.4S34.5,14.1,34.3,13.8z M40,25.5c-0.4,0-0.8-0.1-1.1-0.4c-0.3-0.3-0.4-0.6-0.4-1.1s0.1-0.8,0.4-1.1
	c0.3-0.3,0.6-0.4,1.1-0.4h4.5c0.4,0,0.8,0.1,1.1,0.4c0.3,0.3,0.4,0.6,0.4,1.1s-0.1,0.8-0.4,1.1c-0.3,0.3-0.6,0.4-1.1,0.4H40z
	 M37.5,39.5l-3.2-3.1c-0.3-0.3-0.5-0.7-0.5-1.1c0-0.4,0.2-0.8,0.5-1.1c0.3-0.3,0.7-0.5,1.1-0.5s0.8,0.2,1.1,0.5l3.1,3.2
	c0.3,0.3,0.5,0.7,0.5,1.1c0,0.4-0.2,0.8-0.5,1c-0.3,0.3-0.6,0.5-1,0.5S37.8,39.9,37.5,39.5z M11.6,13.8l-3.2-3.2
	C8.2,10.3,8,9.9,8,9.5s0.2-0.8,0.4-1.1C8.8,8.2,9.1,8,9.5,8c0.4,0,0.7,0.1,1.1,0.5l3.2,3.2c0.3,0.3,0.4,0.7,0.4,1.1
	s-0.1,0.8-0.4,1.1s-0.7,0.4-1.1,0.4S11.9,14.1,11.6,13.8z M12,42c-2.8,0-5.2-1-7.1-2.9S2,34.8,2,32c0-2.8,1-5.1,2.9-7.1
	S9.3,22,12,22c0,0,0,0,0.1,0c0,0,0.1,0,0.1,0c0.5-2.9,1.8-5.3,4.1-7.1S21,12,24,12c3.3,0,6.2,1.2,8.5,3.5S36,20.7,36,24
	c0,2.5-0.7,4.8-2.2,6.9c-1.5,2.1-3.4,3.6-5.9,4.4c-0.2,1.7-0.9,3.2-2.3,4.6C24.3,41.3,22.8,42,21,42H12z M12,39h9
	c1.2,0,2.2-0.4,2.9-1.1S25,36.2,25,35s-0.4-2.2-1.1-2.9C23.2,31.3,22.2,31,21,31h-2.2L18,28.9c-0.5-1.2-1.3-2.1-2.4-2.9
	c-1.1-0.7-2.3-1-3.6-1c-1.9,0-3.5,0.7-4.9,2.1C5.7,28.5,5,30.1,5,32c0,2,0.7,3.6,2,5C8.4,38.3,10,39,12,39z M27.5,32.3
	c1.7-0.7,3-1.8,4-3.3s1.5-3.2,1.5-5c0-2.5-0.9-4.6-2.6-6.4S26.5,15,24,15c-2.2,0-4.1,0.7-5.8,2.1c-1.7,1.4-2.7,3.2-3,5.4
	c1.3,0.6,2.4,1.3,3.4,2.3c1,0.9,1.7,2,2.3,3.2c1.4,0,2.7,0.4,3.9,1.3C25.9,30,26.8,31.1,27.5,32.3z"/>
</svg>
