<?xml version="1.0" encoding="utf-8"?>
<!-- Generator: Adobe Illustrator 25.2.3, SVG Export Plug-In . SVG Version: 6.00 Build 0)  -->
<svg version="1.1" id="Layer_1" xmlns="http://www.w3.org/2000/svg" xmlns:xlink="http://www.w3.org/1999/xlink" x="0px" y="0px"
	 viewBox="0 0 595.28 841.89" style="enable-background:new 0 0 595.28 841.89;" xml:space="preserve">
<style type="text/css">
	.st0{fill:#003668;}
	.st1{fill:#E6002D;}
	.st2{fill:#595757;}
</style>
<g>
	<g>
		<g>
			<g>
				<g>
					<g>
						<g>
							<path class="st0" d="M263.08,419.01c-5.68-3.86-12.95-2.29-16.77,3.52c-3.19,4.85-8,5.45-9.87,5.45
								c-6.07,0-10.23-4.27-11.46-8.69h0c-0.01-0.04-0.02-0.08-0.03-0.12c-0.01-0.05-0.03-0.1-0.04-0.15
								c-0.48-1.84-0.6-2.73-0.6-4.69c0-10.57,10.85-22.35,26.47-22.35c16,0,25.16,12.18,27.51,18.95
								c-0.04-0.12-0.08-0.24-0.12-0.36c-4.54-13.24-17.1-22.76-31.88-22.76c-18.6,0-33.69,15.08-33.69,33.69
								c0,16.63,12,30.87,28.64,30.87c13.27,0,22.19-7.44,26.28-17.7C269.76,429.07,268.17,422.47,263.08,419.01z"/>
						</g>
						<g>
							<path class="st1" d="M278.5,411.59c-1.97-6.6-11.19-19.61-27.72-19.61c-15.63,0-26.47,11.77-26.47,22.35
								c0,1.96,0.12,2.84,0.6,4.69c-0.2-0.81-0.31-1.62-0.31-2.4c0-11.01,11.03-18.64,22.36-18.64c15.34,0,27.78,12.44,27.78,27.78
								c0,12.03-6.92,22.44-16.98,27.44l0,0.01c12.96-4.69,22.22-17.11,22.22-31.69C279.98,418.05,279.52,415.01,278.5,411.59z"/>
						</g>
					</g>
				</g>
			</g>
		</g>
	</g>
	<g>
		<path class="st2" d="M315.42,429.41v2.93h-18.03v-2.93h7.19v-5.74c-0.46-0.1-0.9-0.24-1.33-0.42c-0.96-0.4-1.79-0.93-2.47-1.57
			c-0.71-0.68-1.26-1.47-1.68-2.36c-0.42-0.89-0.62-1.84-0.62-2.87c0-1.01,0.21-1.95,0.62-2.84c0.41-0.88,0.97-1.67,1.68-2.35
			c0.68-0.64,1.5-1.16,2.44-1.56c0.95-0.39,1.94-0.59,2.99-0.59c1.04,0,2.03,0.2,2.96,0.59c0.92,0.39,1.74,0.91,2.44,1.56
			c0.71,0.68,1.26,1.47,1.68,2.35c0.41,0.89,0.62,1.83,0.62,2.84c0,1.03-0.2,1.98-0.62,2.87c-0.41,0.89-0.97,1.67-1.68,2.36
			c-0.7,0.64-1.52,1.17-2.44,1.57c-0.45,0.18-0.92,0.32-1.42,0.42v5.74H315.42z M310.62,416.46c0-0.58-0.12-1.14-0.35-1.68
			c-0.23-0.53-0.55-1.01-0.95-1.43c-0.4-0.38-0.87-0.69-1.4-0.94c-0.54-0.24-1.1-0.36-1.71-0.36c-0.6,0-1.17,0.12-1.71,0.36
			c-0.53,0.24-1.01,0.55-1.43,0.94c-0.38,0.42-0.7,0.9-0.94,1.43c-0.24,0.53-0.36,1.09-0.36,1.68c0,0.6,0.12,1.17,0.36,1.71
			c0.24,0.53,0.55,1.01,0.94,1.43c0.42,0.38,0.9,0.69,1.43,0.94c0.53,0.24,1.1,0.36,1.71,0.36c0.6,0,1.17-0.12,1.71-0.36
			c0.54-0.24,1-0.55,1.4-0.94c0.4-0.42,0.72-0.9,0.95-1.43C310.5,417.63,310.62,417.06,310.62,416.46z M317.44,408.09h3.32v26.93
			h-3.32V408.09z"/>
		<path class="st2" d="M333.77,430.11v-8.36h3.17v8.36h4.5v-8.36h3.2v8.36h8v2.93h-24.76v-2.93H333.77z M347.3,425.36v-12.92h-17.42
			v-2.99h20.77v15.91H347.3z"/>
		<path class="st2" d="M358.64,425.1h24.76v2.96h-10.72v6.94h-3.35v-6.94h-10.69V425.1z M363.92,411.94h14.16v-3.41h3.32v12.96
			h-20.78v-12.96h3.29V411.94z M378.09,414.84h-14.16v3.71h14.16V414.84z"/>
	</g>
</g>
</svg>
