<?xml version="1.0" encoding="utf-8"?>
<!-- Generator: Adobe Illustrator 25.2.3, SVG Export Plug-In . SVG Version: 6.00 Build 0)  -->
<svg version="1.1" id="_xB7__xB9_ÀÌ_xBE_î_1" xmlns="http://www.w3.org/2000/svg" xmlns:xlink="http://www.w3.org/1999/xlink"
	 x="0px" y="0px" viewBox="0 0 411.02 595.28" style="enable-background:new 0 0 411.02 595.28;" xml:space="preserve">
<style type="text/css">
	.st0{fill:#595757;}
	.st1{fill:#003668;}
	.st2{fill:#E6002D;}
</style>
<g>
	<g>
		<path class="st0" d="M101.51,377.31v10.07H99.9v-8.1l-2.63,8.1h-1.56l-2.63-8.1v8.1h-1.62v-10.07h2.48l2.54,7.84l2.54-7.84H101.51
			z"/>
		<path class="st0" d="M105.5,378.1c0,0.28-0.1,0.52-0.31,0.73c-0.21,0.21-0.45,0.31-0.74,0.31c-0.29,0-0.54-0.1-0.74-0.31
			c-0.21-0.21-0.31-0.45-0.31-0.73c0-0.29,0.1-0.54,0.31-0.74c0.21-0.21,0.46-0.31,0.74-0.31c0.29,0,0.54,0.1,0.74,0.31
			C105.4,377.57,105.5,377.81,105.5,378.1z M103.64,387.38v-7.24h1.65v7.24H103.64z"/>
		<path class="st0" d="M109.04,383.73v3.64h-1.63v-7.24h1.58v0.97c0.19-0.34,0.47-0.61,0.84-0.82c0.37-0.21,0.76-0.32,1.18-0.32
			c0.86,0,1.54,0.29,2.06,0.88c0.52,0.58,0.77,1.36,0.77,2.33v4.2h-1.65v-3.78c0-0.77-0.13-1.34-0.38-1.71
			c-0.25-0.37-0.64-0.55-1.15-0.55c-0.27,0-0.53,0.09-0.79,0.27c-0.25,0.18-0.45,0.42-0.58,0.73
			C109.12,382.68,109.04,383.15,109.04,383.73z"/>
		<path class="st0" d="M117.76,378.1c0,0.28-0.1,0.52-0.31,0.73c-0.21,0.21-0.45,0.31-0.74,0.31s-0.54-0.1-0.74-0.31
			c-0.21-0.21-0.31-0.45-0.31-0.73c0-0.29,0.1-0.54,0.31-0.74c0.21-0.21,0.45-0.31,0.74-0.31s0.54,0.1,0.74,0.31
			C117.66,377.57,117.76,377.81,117.76,378.1z M115.9,387.38v-7.24h1.65v7.24H115.9z"/>
		<path class="st0" d="M119,386.03l1.02-1.05c0.29,0.39,0.61,0.7,0.95,0.92c0.34,0.2,0.7,0.3,1.08,0.3c0.37,0,0.68-0.07,0.93-0.22
			c0.25-0.15,0.38-0.35,0.38-0.6c0-0.25-0.12-0.45-0.37-0.59c-0.25-0.14-0.54-0.27-0.87-0.4c-0.4-0.13-0.8-0.27-1.21-0.42
			c-0.56-0.2-0.97-0.46-1.23-0.78c-0.26-0.32-0.39-0.68-0.39-1.08c0-0.6,0.28-1.1,0.84-1.52c0.56-0.42,1.22-0.63,1.98-0.63
			c0.81,0,1.47,0.19,1.98,0.58c0.26,0.2,0.47,0.45,0.62,0.75l-1.01,0.98c-0.13-0.23-0.29-0.42-0.48-0.56
			c-0.32-0.28-0.72-0.42-1.2-0.42c-0.28,0-0.52,0.07-0.73,0.21s-0.31,0.3-0.31,0.5c0,0.21,0.12,0.39,0.35,0.54
			c0.23,0.14,0.57,0.28,1.03,0.42c0.16,0.05,0.35,0.11,0.56,0.17c0.7,0.23,1.24,0.53,1.6,0.89c0.36,0.37,0.54,0.8,0.54,1.31
			c0,0.6-0.29,1.12-0.87,1.55c-0.58,0.44-1.31,0.66-2.21,0.66c-0.75,0-1.42-0.17-1.99-0.52C119.62,386.8,119.28,386.46,119,386.03z"
			/>
		<path class="st0" d="M128.59,377.81v2.32h1.57v1.33h-1.57v3.68c0,0.35,0.08,0.58,0.25,0.71c0.17,0.13,0.41,0.2,0.71,0.2h0.61v1.31
			h-1c-0.78,0-1.35-0.17-1.7-0.52c-0.36-0.35-0.54-0.86-0.54-1.55v-3.84h-1.24v-1.33h1.24v-2.32H128.59z"/>
		<path class="st0" d="M131.66,387.38v-7.24h1.55v1.08c0.24-0.36,0.53-0.63,0.88-0.82c0.41-0.25,0.9-0.38,1.46-0.38h0.12v1.47h-0.17
			c-0.68,0-1.23,0.21-1.63,0.62c-0.38,0.4-0.56,1.04-0.56,1.89v3.37H131.66z"/>
		<path class="st0" d="M139.24,387.1l-2.85-6.96h1.71l1.96,4.94l1.95-4.94h1.69l-4.03,10.04H138L139.24,387.1z"/>
		<path class="st0" d="M151.95,387.55c-1.06,0-1.96-0.37-2.71-1.09c-0.75-0.73-1.12-1.63-1.12-2.69c0-1.07,0.37-1.97,1.12-2.7
			c0.75-0.73,1.65-1.1,2.71-1.1c1.07,0,1.97,0.37,2.71,1.1c0.74,0.73,1.11,1.63,1.11,2.7c0,1.07-0.37,1.97-1.11,2.69
			C153.92,387.18,153.01,387.55,151.95,387.55z M151.95,386.19c0.6,0,1.11-0.23,1.54-0.69c0.43-0.46,0.64-1.04,0.64-1.74
			c0-0.69-0.21-1.27-0.64-1.74c-0.43-0.47-0.94-0.7-1.54-0.7c-0.59,0-1.1,0.23-1.52,0.7c-0.43,0.47-0.64,1.05-0.64,1.74
			c0,0.7,0.21,1.28,0.64,1.74C150.85,385.96,151.36,386.19,151.95,386.19z"/>
		<path class="st0" d="M157.67,379.38c0-0.68,0.19-1.19,0.57-1.54c0.38-0.35,0.96-0.53,1.74-0.53h0.79v1.31h-0.48
			c-0.31,0-0.55,0.06-0.71,0.2c-0.17,0.13-0.25,0.37-0.25,0.71v0.61h1.44v1.33h-1.44v5.91h-1.66v-5.91h-1.24v-1.33h1.24V379.38z"/>
		<path class="st0" d="M78.86,405.09h-1.69v-10.07h6.38v1.4h-4.69v2.92h4.56v1.39h-4.56V405.09z"/>
		<path class="st0" d="M88.63,405.26c-1.06,0-1.96-0.36-2.71-1.09c-0.75-0.73-1.12-1.63-1.12-2.69c0-1.07,0.37-1.97,1.12-2.7
			c0.75-0.73,1.65-1.1,2.71-1.1c1.07,0,1.97,0.37,2.72,1.1c0.74,0.73,1.11,1.63,1.11,2.7c0,1.07-0.37,1.97-1.11,2.69
			C90.6,404.9,89.69,405.26,88.63,405.26z M88.63,403.9c0.6,0,1.11-0.23,1.54-0.69c0.43-0.46,0.64-1.04,0.64-1.74
			c0-0.69-0.21-1.27-0.64-1.74c-0.43-0.47-0.94-0.7-1.54-0.7c-0.59,0-1.09,0.23-1.52,0.7c-0.43,0.47-0.64,1.05-0.64,1.74
			c0,0.7,0.21,1.28,0.64,1.74C87.53,403.68,88.04,403.9,88.63,403.9z"/>
		<path class="st0" d="M93.98,405.09v-7.24h1.55v1.08c0.24-0.36,0.53-0.63,0.88-0.82c0.41-0.25,0.9-0.38,1.46-0.38h0.12v1.47h-0.17
			c-0.68,0-1.23,0.21-1.63,0.62c-0.37,0.4-0.56,1.04-0.56,1.89v3.37H93.98z"/>
		<path class="st0" d="M100.32,402.2c0.1,0.44,0.3,0.8,0.62,1.08c0.46,0.42,1.07,0.63,1.83,0.63c0.8,0,1.55-0.29,2.24-0.88
			l0.49,1.21c-0.78,0.67-1.7,1.01-2.77,1.01c-1.22,0-2.22-0.35-2.98-1.04c-0.77-0.69-1.15-1.6-1.15-2.73c0-1.11,0.34-2.02,1.02-2.74
			c0.68-0.72,1.57-1.08,2.66-1.08c1.08,0,1.96,0.36,2.65,1.07c0.69,0.71,1.03,1.59,1.03,2.64c0,0.29-0.02,0.56-0.07,0.81H100.32z
			 M100.29,400.9h4.01c-0.02-0.47-0.22-0.9-0.59-1.29c-0.38-0.39-0.85-0.58-1.43-0.58c-0.6,0-1.09,0.21-1.47,0.63
			C100.54,399.98,100.36,400.39,100.29,400.9z"/>
		<path class="st0" d="M109.39,395.82c0,0.28-0.1,0.52-0.31,0.73c-0.21,0.21-0.46,0.31-0.74,0.31c-0.29,0-0.54-0.11-0.74-0.31
			c-0.21-0.21-0.31-0.45-0.31-0.73c0-0.29,0.1-0.54,0.31-0.74c0.21-0.21,0.45-0.31,0.74-0.31c0.29,0,0.54,0.1,0.74,0.31
			C109.29,395.28,109.39,395.53,109.39,395.82z M107.53,405.09v-7.24h1.65v7.24H107.53z"/>
		<path class="st0" d="M114.26,407.96c-1.11,0-2.05-0.28-2.84-0.82l0.49-1.31c0.73,0.54,1.52,0.81,2.35,0.81
			c0.73,0,1.31-0.21,1.73-0.62c0.42-0.41,0.63-0.88,0.63-1.4v-0.43c-0.6,0.72-1.35,1.08-2.27,1.08c-1.06,0-1.92-0.38-2.57-1.13
			c-0.66-0.75-0.98-1.64-0.98-2.66c0-1.02,0.33-1.91,0.98-2.67c0.65-0.76,1.51-1.13,2.57-1.13c0.86,0,1.59,0.35,2.21,1.04v-0.87
			h1.65v6.01c0,1.38-0.34,2.4-1.02,3.08C116.49,407.62,115.52,407.96,114.26,407.96z M116.54,401.95c0.03-0.33,0.03-0.64,0-0.95
			c-0.06-0.55-0.26-1.01-0.61-1.37c-0.39-0.4-0.86-0.61-1.43-0.61c-0.64,0-1.14,0.23-1.5,0.71c-0.37,0.47-0.55,1.05-0.55,1.75
			c0,0.7,0.18,1.29,0.55,1.75c0.37,0.46,0.87,0.69,1.5,0.69c0.57,0,1.04-0.2,1.43-0.61C116.28,402.95,116.48,402.49,116.54,401.95z"
			/>
		<path class="st0" d="M121.84,401.45v3.64h-1.63v-7.24h1.58v0.97c0.19-0.34,0.47-0.61,0.84-0.82c0.37-0.21,0.76-0.32,1.18-0.32
			c0.86,0,1.54,0.29,2.06,0.87c0.52,0.58,0.77,1.36,0.77,2.33v4.2h-1.65v-3.78c0-0.77-0.13-1.34-0.38-1.71
			c-0.25-0.37-0.63-0.56-1.15-0.56c-0.27,0-0.53,0.09-0.79,0.27c-0.26,0.18-0.45,0.42-0.58,0.73
			C121.92,400.39,121.84,400.86,121.84,401.45z"/>
		<path class="st0" d="M137.74,395.02l3.52,10.07h-1.72l-1.01-2.96h-3.87l-1.01,2.96h-1.72l3.51-10.07H137.74z M135.14,400.73h2.92
			l-1.44-4.23L135.14,400.73z"/>
		<path class="st0" d="M142.42,397.09c0-0.67,0.19-1.19,0.57-1.54c0.38-0.35,0.96-0.53,1.74-0.53h0.79v1.31h-0.48
			c-0.31,0-0.54,0.07-0.71,0.2c-0.17,0.13-0.25,0.37-0.25,0.71v0.61h1.44v1.33h-1.44v5.91h-1.66v-5.91h-1.24v-1.33h1.24V397.09z"/>
		<path class="st0" d="M147.78,397.09c0-0.67,0.19-1.19,0.57-1.54c0.38-0.35,0.96-0.53,1.74-0.53h0.79v1.31h-0.48
			c-0.31,0-0.55,0.07-0.72,0.2c-0.17,0.13-0.25,0.37-0.25,0.71v0.61h1.44v1.33h-1.44v5.91h-1.66v-5.91h-1.24v-1.33h1.24V397.09z"/>
		<path class="st0" d="M155.26,400.42c0.55,0,1.12,0,1.71,0c0-0.47-0.18-0.83-0.55-1.06c-0.37-0.24-0.9-0.35-1.59-0.35h-0.04
			c-0.65,0-1.35,0.15-2.08,0.46l-0.42-1.29c0.76-0.33,1.6-0.5,2.51-0.51h0.03c1.21,0,2.14,0.23,2.79,0.7
			c0.65,0.47,0.97,1.21,0.97,2.23v4.48h-1.56v-0.79c-0.31,0.31-0.69,0.54-1.13,0.71c-0.45,0.17-0.9,0.25-1.37,0.25
			c-0.87,0-1.57-0.23-2.1-0.69c-0.53-0.46-0.8-1.02-0.8-1.68c0-0.74,0.33-1.35,1-1.83C153.25,400.63,154.13,400.42,155.26,400.42z
			 M154.81,403.96c0.42,0,0.84-0.11,1.26-0.31c0.42-0.21,0.71-0.44,0.9-0.71v-1.23c-0.54,0-1.03,0-1.46,0
			c-0.83,0-1.41,0.11-1.73,0.32c-0.32,0.24-0.48,0.53-0.48,0.87c0,0.31,0.13,0.56,0.4,0.77
			C153.97,403.86,154.34,403.96,154.81,403.96z"/>
		<path class="st0" d="M162.53,395.82c0,0.28-0.1,0.52-0.31,0.73c-0.21,0.21-0.46,0.31-0.74,0.31c-0.29,0-0.54-0.11-0.74-0.31
			c-0.21-0.21-0.31-0.45-0.31-0.73c0-0.29,0.1-0.54,0.31-0.74c0.21-0.21,0.46-0.31,0.74-0.31c0.29,0,0.54,0.1,0.74,0.31
			C162.42,395.28,162.53,395.53,162.53,395.82z M160.66,405.09v-7.24h1.65v7.24H160.66z"/>
		<path class="st0" d="M164.43,405.09v-7.24h1.55v1.08c0.24-0.36,0.54-0.63,0.88-0.82c0.41-0.25,0.9-0.38,1.46-0.38h0.11v1.47h-0.17
			c-0.68,0-1.23,0.21-1.63,0.62c-0.37,0.4-0.56,1.04-0.56,1.89v3.37H164.43z"/>
		<path class="st0" d="M169.04,403.74l1.03-1.05c0.29,0.39,0.61,0.7,0.95,0.92c0.34,0.2,0.7,0.3,1.08,0.3
			c0.37,0,0.68-0.07,0.93-0.22c0.25-0.15,0.38-0.35,0.38-0.6s-0.12-0.45-0.37-0.59c-0.25-0.14-0.54-0.27-0.87-0.4
			c-0.39-0.13-0.8-0.27-1.21-0.42c-0.56-0.2-0.97-0.46-1.23-0.78c-0.26-0.32-0.39-0.68-0.39-1.08c0-0.6,0.28-1.11,0.84-1.52
			c0.56-0.42,1.22-0.63,1.98-0.63c0.81,0,1.47,0.19,1.98,0.58c0.26,0.2,0.47,0.45,0.62,0.75l-1.01,0.98
			c-0.13-0.23-0.29-0.42-0.48-0.56c-0.32-0.28-0.72-0.42-1.2-0.42c-0.28,0-0.52,0.07-0.73,0.21c-0.21,0.14-0.31,0.31-0.31,0.5
			c0,0.21,0.12,0.39,0.35,0.54c0.23,0.14,0.57,0.29,1.02,0.42c0.16,0.05,0.35,0.11,0.56,0.17c0.7,0.23,1.24,0.53,1.6,0.9
			c0.36,0.37,0.54,0.8,0.54,1.31c0,0.6-0.29,1.12-0.87,1.55c-0.58,0.44-1.31,0.66-2.21,0.66c-0.75,0-1.42-0.17-1.99-0.52
			C169.65,404.51,169.32,404.18,169.04,403.74z"/>
	</g>
	<g>
		<g>
			<g>
				<g>
					<g>
						<path class="st1" d="M142.66,327.99c-5.68-3.86-12.95-2.29-16.77,3.52c-3.19,4.85-8,5.45-9.87,5.45
							c-6.07,0-10.23-4.27-11.46-8.69h0c-0.01-0.04-0.02-0.08-0.03-0.13c-0.01-0.05-0.03-0.1-0.04-0.15
							c-0.48-1.84-0.6-2.73-0.6-4.69c0-10.57,10.85-22.35,26.47-22.35c16,0,25.16,12.18,27.52,18.95c-0.04-0.12-0.08-0.24-0.12-0.36
							c-4.54-13.24-17.1-22.76-31.88-22.76c-18.61,0-33.69,15.08-33.69,33.69c0,16.63,12,30.87,28.64,30.87
							c13.27,0,22.19-7.44,26.28-17.7C149.35,338.05,147.76,331.46,142.66,327.99z"/>
					</g>
					<g>
						<path class="st2" d="M158.08,320.57c-1.97-6.6-11.19-19.61-27.72-19.61c-15.63,0-26.47,11.77-26.47,22.35
							c0,1.96,0.12,2.84,0.6,4.69c-0.21-0.8-0.31-1.62-0.31-2.4c0-11.01,11.03-18.64,22.36-18.64c15.34,0,27.78,12.44,27.78,27.78
							c0,12.03-6.92,22.44-16.98,27.44l0,0.01c12.96-4.7,22.22-17.11,22.22-31.69C159.57,327.03,159.1,323.99,158.08,320.57z"/>
					</g>
				</g>
			</g>
		</g>
	</g>
</g>
<g>
	<g>
		<g>
			<g>
				<g>
					<g>
						<g>
							<g>
								<g>
									<path class="st1" d="M139.85,480c-5.68-3.86-12.95-2.29-16.77,3.52c-3.19,4.85-8,5.45-9.87,5.45
										c-6.07,0-10.23-4.27-11.46-8.7h0c-0.01-0.04-0.02-0.08-0.03-0.12c-0.01-0.05-0.03-0.1-0.04-0.15
										c-0.48-1.84-0.6-2.73-0.6-4.69c0-10.57,10.85-22.35,26.47-22.35c16,0,25.16,12.18,27.52,18.95
										c-0.04-0.12-0.08-0.24-0.12-0.36c-4.54-13.24-17.1-22.76-31.88-22.76c-18.6,0-33.69,15.08-33.69,33.69
										c0,16.63,12,30.87,28.64,30.87c13.27,0,22.19-7.44,26.28-17.7C146.53,490.06,144.94,483.47,139.85,480z"/>
								</g>
								<g>
									<path class="st2" d="M155.27,472.58c-1.97-6.6-11.19-19.61-27.72-19.61c-15.63,0-26.47,11.77-26.47,22.35
										c0,1.96,0.12,2.84,0.6,4.69c-0.2-0.81-0.31-1.62-0.31-2.4c0-11.01,11.03-18.64,22.36-18.64
										c15.35,0,27.78,12.44,27.78,27.78c0,12.03-6.92,22.44-16.98,27.44l0,0.01c12.96-4.7,22.22-17.11,22.22-31.69
										C156.75,479.04,156.29,476,155.27,472.58z"/>
								</g>
							</g>
						</g>
					</g>
				</g>
			</g>
		</g>
	</g>
	<g>
		<path class="st0" d="M187.01,463.96v13.43h-2.16v-10.81l-3.51,10.81h-2.08l-3.51-10.81v10.81h-2.16v-13.43h3.31l3.39,10.46
			l3.39-10.46H187.01z"/>
		<path class="st0" d="M192.33,465.02c0,0.37-0.14,0.7-0.41,0.97c-0.28,0.28-0.61,0.41-0.99,0.41c-0.38,0-0.72-0.14-0.99-0.41
			c-0.28-0.28-0.42-0.6-0.42-0.97c0-0.38,0.14-0.71,0.42-0.99c0.28-0.28,0.61-0.41,0.99-0.41c0.39,0,0.71,0.14,0.99,0.41
			C192.19,464.3,192.33,464.63,192.33,465.02z M189.84,477.39v-9.65h2.2v9.65H189.84z"/>
		<path class="st0" d="M197.05,472.53v4.86h-2.18v-9.65h2.1v1.29c0.26-0.45,0.63-0.81,1.12-1.1c0.49-0.28,1.02-0.42,1.58-0.42
			c1.14,0,2.06,0.39,2.74,1.17c0.69,0.78,1.03,1.81,1.03,3.11v5.61h-2.2v-5.05c0-1.03-0.17-1.79-0.5-2.29
			c-0.33-0.49-0.85-0.74-1.54-0.74c-0.36,0-0.71,0.12-1.05,0.36c-0.34,0.24-0.6,0.56-0.78,0.97
			C197.16,471.12,197.05,471.75,197.05,472.53z"/>
		<path class="st0" d="M208.69,465.02c0,0.37-0.14,0.7-0.41,0.97c-0.28,0.28-0.61,0.41-0.99,0.41c-0.38,0-0.71-0.14-0.99-0.41
			c-0.28-0.28-0.42-0.6-0.42-0.97c0-0.38,0.14-0.71,0.42-0.99c0.28-0.28,0.61-0.41,0.99-0.41c0.39,0,0.72,0.14,0.99,0.41
			C208.55,464.3,208.69,464.63,208.69,465.02z M206.2,477.39v-9.65h2.2v9.65H206.2z"/>
		<path class="st0" d="M210.35,475.6l1.37-1.41c0.38,0.53,0.81,0.94,1.27,1.23c0.45,0.27,0.93,0.4,1.45,0.4c0.49,0,0.9-0.1,1.24-0.3
			c0.34-0.2,0.51-0.47,0.51-0.8c0-0.33-0.16-0.59-0.49-0.78c-0.33-0.19-0.71-0.36-1.17-0.53c-0.53-0.17-1.07-0.35-1.62-0.56
			c-0.75-0.27-1.29-0.62-1.64-1.04c-0.35-0.42-0.52-0.91-0.52-1.45c0-0.79,0.37-1.47,1.12-2.03c0.74-0.56,1.63-0.84,2.64-0.84
			c1.08,0,1.96,0.26,2.64,0.77c0.35,0.27,0.62,0.6,0.83,1l-1.35,1.31c-0.18-0.31-0.39-0.56-0.64-0.75c-0.42-0.37-0.96-0.56-1.6-0.56
			c-0.38,0-0.7,0.09-0.97,0.28c-0.28,0.19-0.42,0.41-0.42,0.66c0,0.28,0.15,0.52,0.46,0.71c0.31,0.19,0.76,0.38,1.37,0.56
			c0.22,0.06,0.47,0.14,0.75,0.23c0.94,0.31,1.65,0.71,2.13,1.2c0.48,0.49,0.72,1.07,0.72,1.75c0,0.8-0.39,1.49-1.16,2.07
			c-0.77,0.58-1.75,0.88-2.95,0.88c-1,0-1.89-0.23-2.66-0.69C211.16,476.62,210.72,476.17,210.35,475.6z"/>
		<path class="st0" d="M223.14,464.63v3.1h2.1v1.77h-2.1v4.91c0,0.46,0.11,0.78,0.34,0.95c0.22,0.17,0.54,0.26,0.96,0.26h0.81v1.75
			h-1.33c-1.04,0-1.8-0.23-2.27-0.69c-0.48-0.46-0.71-1.15-0.71-2.06v-5.13h-1.66v-1.77h1.66v-3.1H223.14z"/>
		<path class="st0" d="M227.23,477.39v-9.65h2.06v1.45c0.32-0.48,0.71-0.84,1.18-1.1c0.55-0.33,1.2-0.5,1.95-0.5h0.15v1.97h-0.23
			c-0.91,0-1.64,0.28-2.18,0.83c-0.5,0.54-0.75,1.38-0.75,2.53v4.49H227.23z"/>
		<path class="st0" d="M237.34,477.02l-3.8-9.29h2.28l2.62,6.59l2.6-6.59h2.25l-5.38,13.39h-2.24L237.34,477.02z"/>
		<path class="st0" d="M254.3,477.62c-1.41,0-2.62-0.48-3.61-1.46c-0.99-0.97-1.49-2.17-1.49-3.59c0-1.43,0.5-2.63,1.49-3.6
			c1-0.98,2.2-1.46,3.61-1.46c1.43,0,2.63,0.49,3.62,1.46c0.99,0.98,1.49,2.18,1.49,3.6c0,1.43-0.5,2.62-1.49,3.59
			C256.94,477.13,255.73,477.62,254.3,477.62z M254.3,475.81c0.8,0,1.48-0.31,2.05-0.92c0.57-0.61,0.86-1.38,0.86-2.32
			c0-0.93-0.29-1.7-0.86-2.32c-0.57-0.62-1.26-0.94-2.05-0.94c-0.78,0-1.46,0.31-2.03,0.94c-0.57,0.62-0.86,1.4-0.86,2.32
			c0,0.94,0.29,1.71,0.86,2.32C252.84,475.5,253.52,475.81,254.3,475.81z"/>
		<path class="st0" d="M261.93,466.71c0-0.9,0.25-1.58,0.76-2.05c0.51-0.47,1.28-0.7,2.32-0.7h1.06v1.75h-0.63
			c-0.41,0-0.73,0.09-0.95,0.26c-0.22,0.17-0.34,0.49-0.34,0.95v0.81h1.93v1.77h-1.93v7.88h-2.21v-7.88h-1.66v-1.77h1.66V466.71z"/>
		<path class="st0" d="M175.85,501h-2.25v-13.43h8.52v1.87h-6.26v3.89h6.09v1.85h-6.09V501z"/>
		<path class="st0" d="M188.88,501.23c-1.41,0-2.62-0.48-3.61-1.46c-1-0.97-1.49-2.17-1.49-3.59c0-1.43,0.5-2.63,1.49-3.6
			c1-0.98,2.2-1.46,3.61-1.46c1.43,0,2.63,0.49,3.62,1.46c0.99,0.98,1.48,2.18,1.48,3.6c0,1.43-0.49,2.62-1.48,3.59
			C191.51,500.75,190.31,501.23,188.88,501.23z M188.88,499.42c0.8,0,1.48-0.3,2.05-0.91c0.57-0.61,0.86-1.38,0.86-2.32
			c0-0.93-0.29-1.7-0.86-2.32c-0.57-0.62-1.26-0.94-2.05-0.94c-0.78,0-1.46,0.31-2.03,0.94c-0.57,0.62-0.86,1.4-0.86,2.32
			c0,0.94,0.29,1.71,0.86,2.32C187.42,499.12,188.09,499.42,188.88,499.42z"/>
		<path class="st0" d="M196.03,501v-9.65h2.06v1.45c0.32-0.47,0.71-0.84,1.18-1.1c0.55-0.33,1.2-0.5,1.95-0.5h0.15v1.97h-0.23
			c-0.91,0-1.64,0.28-2.18,0.83c-0.5,0.54-0.75,1.38-0.75,2.53V501H196.03z"/>
		<path class="st0" d="M204.49,497.15c0.13,0.59,0.4,1.07,0.83,1.45c0.62,0.57,1.43,0.85,2.45,0.85c1.07,0,2.06-0.39,2.99-1.17
			l0.65,1.62c-1.04,0.9-2.27,1.35-3.7,1.35c-1.63,0-2.96-0.46-3.98-1.39c-1.02-0.92-1.53-2.14-1.53-3.64c0-1.48,0.46-2.7,1.36-3.65
			c0.91-0.96,2.09-1.44,3.56-1.44c1.44,0,2.62,0.47,3.54,1.43c0.92,0.95,1.38,2.13,1.38,3.53c0,0.38-0.03,0.74-0.1,1.08H204.49z
			 M204.45,495.41h5.36c-0.03-0.63-0.29-1.2-0.79-1.72c-0.5-0.52-1.14-0.78-1.91-0.78c-0.8,0-1.45,0.28-1.97,0.85
			C204.77,494.18,204.54,494.73,204.45,495.41z"/>
		<path class="st0" d="M216.59,488.63c0,0.37-0.14,0.7-0.42,0.97c-0.27,0.28-0.61,0.41-0.99,0.41s-0.72-0.14-0.99-0.41
			c-0.28-0.28-0.41-0.6-0.41-0.97c0-0.38,0.14-0.71,0.41-0.99c0.28-0.28,0.61-0.41,0.99-0.41s0.72,0.14,0.99,0.41
			C216.45,487.91,216.59,488.24,216.59,488.63z M214.1,501v-9.65h2.2V501H214.1z"/>
		<path class="st0" d="M223.08,504.84c-1.48,0-2.74-0.37-3.8-1.1l0.66-1.75c0.98,0.72,2.02,1.08,3.14,1.08
			c0.97,0,1.75-0.28,2.3-0.83c0.56-0.55,0.84-1.18,0.84-1.87v-0.58c-0.8,0.96-1.8,1.45-3.03,1.45c-1.41,0-2.56-0.5-3.43-1.5
			c-0.87-1-1.31-2.18-1.31-3.54s0.44-2.55,1.31-3.55c0.87-1.01,2.02-1.51,3.43-1.51c1.14,0,2.13,0.46,2.95,1.39v-1.16h2.2v8.02
			c0,1.84-0.46,3.21-1.37,4.11C226.06,504.38,224.77,504.84,223.08,504.84z M226.13,496.82c0.04-0.44,0.04-0.86,0-1.27
			c-0.08-0.73-0.35-1.34-0.81-1.83c-0.51-0.54-1.15-0.81-1.91-0.81c-0.85,0-1.52,0.31-2.01,0.94c-0.49,0.63-0.73,1.41-0.73,2.33
			c0,0.94,0.24,1.71,0.73,2.33c0.49,0.62,1.16,0.92,2.01,0.92c0.76,0,1.39-0.27,1.91-0.81
			C225.78,498.14,226.05,497.54,226.13,496.82z"/>
		<path class="st0" d="M233.2,496.14V501h-2.18v-9.65h2.1v1.29c0.26-0.45,0.63-0.81,1.12-1.1c0.49-0.28,1.01-0.42,1.58-0.42
			c1.14,0,2.06,0.39,2.75,1.17c0.69,0.78,1.03,1.81,1.03,3.11V501h-2.2v-5.05c0-1.03-0.17-1.79-0.5-2.29
			c-0.33-0.49-0.85-0.74-1.54-0.74c-0.36,0-0.71,0.12-1.05,0.36c-0.34,0.24-0.6,0.56-0.78,0.97
			C233.31,494.73,233.2,495.36,233.2,496.14z"/>
		<path class="st0" d="M254.42,487.57l4.7,13.43h-2.29l-1.35-3.95h-5.17l-1.35,3.95h-2.29l4.68-13.43H254.42z M250.95,495.18h3.89
			l-1.93-5.65L250.95,495.18z"/>
		<path class="st0" d="M260.66,490.33c0-0.9,0.25-1.58,0.76-2.05c0.51-0.47,1.28-0.7,2.32-0.7h1.06v1.75h-0.63
			c-0.41,0-0.73,0.09-0.95,0.26c-0.23,0.17-0.34,0.49-0.34,0.95v0.81h1.92v1.77h-1.92V501h-2.22v-7.88H259v-1.77h1.66V490.33z"/>
		<path class="st0" d="M267.81,490.33c0-0.9,0.25-1.58,0.76-2.05c0.51-0.47,1.28-0.7,2.32-0.7h1.06v1.75h-0.64
			c-0.41,0-0.73,0.09-0.95,0.26c-0.22,0.17-0.34,0.49-0.34,0.95v0.81h1.93v1.77h-1.93V501h-2.22v-7.88h-1.66v-1.77h1.66V490.33z"/>
		<path class="st0" d="M277.79,494.78c0.73,0,1.49,0,2.27,0c0-0.63-0.24-1.1-0.73-1.42c-0.49-0.32-1.2-0.47-2.12-0.47h-0.06
			c-0.87,0-1.8,0.21-2.78,0.62l-0.56-1.71c1.01-0.44,2.13-0.66,3.35-0.67h0.04c1.62,0,2.86,0.31,3.73,0.94
			c0.87,0.62,1.3,1.62,1.3,2.98V501h-2.08v-1.06c-0.41,0.41-0.91,0.73-1.51,0.95c-0.6,0.22-1.2,0.34-1.82,0.34
			c-1.16,0-2.09-0.31-2.8-0.92c-0.71-0.61-1.07-1.36-1.07-2.24c0-0.99,0.44-1.8,1.33-2.45
			C275.11,495.06,276.28,494.78,277.79,494.78z M277.19,499.5c0.57,0,1.12-0.14,1.68-0.41c0.55-0.28,0.95-0.59,1.19-0.96v-1.64
			c-0.72,0-1.37,0-1.95,0c-1.11,0-1.88,0.14-2.31,0.42c-0.42,0.32-0.64,0.71-0.64,1.16c0,0.41,0.18,0.75,0.54,1.02
			C276.07,499.36,276.56,499.5,277.19,499.5z"/>
		<path class="st0" d="M287.48,488.63c0,0.37-0.14,0.7-0.41,0.97c-0.28,0.28-0.61,0.41-0.99,0.41c-0.39,0-0.72-0.14-0.99-0.41
			c-0.28-0.28-0.41-0.6-0.41-0.97c0-0.38,0.14-0.71,0.41-0.99c0.28-0.28,0.61-0.41,0.99-0.41c0.38,0,0.71,0.14,0.99,0.41
			C287.35,487.91,287.48,488.24,287.48,488.63z M285,501v-9.65h2.2V501H285z"/>
		<path class="st0" d="M290.03,501v-9.65h2.06v1.45c0.32-0.47,0.71-0.84,1.18-1.1c0.55-0.33,1.2-0.5,1.95-0.5h0.15v1.97h-0.23
			c-0.91,0-1.64,0.28-2.18,0.83c-0.5,0.54-0.75,1.38-0.75,2.53V501H290.03z"/>
		<path class="st0" d="M296.17,499.21l1.37-1.41c0.38,0.53,0.81,0.94,1.27,1.23c0.45,0.27,0.93,0.4,1.45,0.4
			c0.49,0,0.9-0.1,1.24-0.3c0.34-0.2,0.51-0.46,0.51-0.8c0-0.33-0.16-0.59-0.49-0.78c-0.33-0.19-0.72-0.36-1.17-0.53
			c-0.53-0.17-1.07-0.35-1.62-0.56c-0.75-0.27-1.29-0.62-1.64-1.04c-0.35-0.42-0.52-0.91-0.52-1.45c0-0.8,0.37-1.47,1.12-2.03
			c0.74-0.56,1.63-0.84,2.64-0.84c1.08,0,1.96,0.26,2.64,0.77c0.35,0.27,0.62,0.6,0.83,1l-1.35,1.31c-0.18-0.31-0.39-0.56-0.63-0.75
			c-0.42-0.37-0.96-0.56-1.6-0.56c-0.37,0-0.7,0.09-0.97,0.28c-0.28,0.19-0.41,0.41-0.41,0.66c0,0.28,0.16,0.52,0.46,0.71
			c0.31,0.19,0.77,0.38,1.37,0.56c0.22,0.06,0.47,0.14,0.75,0.23c0.94,0.31,1.65,0.71,2.13,1.2c0.48,0.49,0.72,1.07,0.72,1.75
			c0,0.8-0.38,1.49-1.16,2.07c-0.77,0.58-1.75,0.88-2.95,0.88c-1,0-1.89-0.23-2.66-0.69C296.99,500.23,296.55,499.79,296.17,499.21z
			"/>
	</g>
</g>
<g>
	<g>
		<g>
			<g>
				<g>
					<path class="st1" d="M294.18,327.12c-5.73-3.9-13.07-2.31-16.92,3.55c-3.22,4.89-8.08,5.5-9.96,5.5
						c-6.13,0-10.33-4.31-11.57-8.78h0c-0.01-0.04-0.02-0.08-0.03-0.12c-0.01-0.05-0.03-0.1-0.04-0.15
						c-0.49-1.86-0.61-2.75-0.61-4.73c0-10.67,10.95-22.55,26.72-22.55c16.15,0,25.39,12.29,27.77,19.13
						c-0.04-0.12-0.08-0.24-0.12-0.36c-4.58-13.36-17.25-22.97-32.17-22.97c-18.78,0-34,15.22-34,34c0,16.79,12.11,31.16,28.9,31.16
						c13.39,0,22.4-7.51,26.53-17.86C300.93,337.27,299.32,330.62,294.18,327.12z"/>
				</g>
				<g>
					<path class="st2" d="M309.74,319.63c-1.98-6.66-11.29-19.79-27.98-19.79c-15.77,0-26.72,11.88-26.72,22.55
						c0,1.98,0.12,2.87,0.61,4.73c-0.21-0.81-0.31-1.63-0.31-2.43c0-11.11,11.13-18.81,22.57-18.81c15.49,0,28.04,12.55,28.04,28.04
						c0,12.14-6.99,22.64-17.14,27.69l0,0.01c13.08-4.74,22.43-17.27,22.43-31.99C311.24,326.15,310.77,323.08,309.74,319.63z"/>
				</g>
			</g>
		</g>
	</g>
	<g>
		<path class="st0" d="M256.73,396.11v2.41h-14.8v-2.41h5.9v-4.71c-0.38-0.08-0.74-0.2-1.09-0.35c-0.79-0.33-1.47-0.76-2.03-1.29
			c-0.58-0.56-1.04-1.21-1.38-1.93c-0.34-0.73-0.51-1.51-0.51-2.36c0-0.83,0.17-1.6,0.51-2.33c0.34-0.73,0.8-1.37,1.38-1.93
			c0.56-0.53,1.23-0.95,2.01-1.28c0.78-0.32,1.59-0.48,2.45-0.48c0.86,0,1.67,0.16,2.43,0.48c0.76,0.32,1.43,0.75,2.01,1.28
			c0.58,0.56,1.04,1.21,1.38,1.93c0.34,0.73,0.51,1.51,0.51,2.33c0,0.84-0.17,1.63-0.51,2.36c-0.34,0.73-0.8,1.37-1.38,1.93
			c-0.58,0.53-1.25,0.96-2.01,1.29c-0.36,0.15-0.75,0.26-1.17,0.35v4.71H256.73z M252.78,385.47c0-0.48-0.09-0.94-0.29-1.38
			c-0.19-0.44-0.45-0.83-0.78-1.18c-0.33-0.31-0.71-0.57-1.15-0.77c-0.44-0.2-0.91-0.3-1.4-0.3c-0.5,0-0.96,0.1-1.4,0.3
			c-0.44,0.2-0.83,0.46-1.18,0.77c-0.31,0.35-0.57,0.74-0.77,1.18c-0.2,0.44-0.3,0.9-0.3,1.38c0,0.5,0.1,0.96,0.3,1.4
			c0.2,0.44,0.46,0.83,0.77,1.18c0.35,0.32,0.74,0.57,1.18,0.77c0.44,0.2,0.91,0.3,1.4,0.3c0.5,0,0.96-0.1,1.4-0.3
			c0.44-0.2,0.82-0.45,1.15-0.77c0.33-0.35,0.59-0.74,0.78-1.18C252.69,386.43,252.78,385.96,252.78,385.47z M258.39,378.6h2.73
			v22.12h-2.73V378.6z"/>
		<path class="st0" d="M271.79,396.68v-6.87h2.6v6.87h3.69v-6.87h2.63v6.87h6.57v2.41h-20.34v-2.41H271.79z M282.9,392.78v-10.61
			H268.6v-2.46h17.06v13.07H282.9z"/>
		<path class="st0" d="M292.22,392.57h20.34V395h-8.8v5.7H301V395h-8.78V392.57z M296.56,381.76h11.63v-2.8h2.73v10.64h-17.06
			v-10.64h2.7V381.76z M308.19,384.14h-11.63v3.05h11.63V384.14z"/>
	</g>
</g>
<g>
	<g>
		<g>
			<g>
				<g>
					<g>
						<g>
							<path class="st1" d="M139.85,221.19c-5.68-3.86-12.95-2.29-16.77,3.52c-3.19,4.85-8,5.45-9.87,5.45
								c-6.07,0-10.23-4.27-11.46-8.69h0c-0.01-0.04-0.02-0.08-0.03-0.12c-0.01-0.05-0.03-0.1-0.04-0.15
								c-0.48-1.84-0.6-2.73-0.6-4.69c0-10.57,10.85-22.35,26.47-22.35c16,0,25.16,12.18,27.51,18.95
								c-0.04-0.12-0.08-0.24-0.12-0.36c-4.54-13.24-17.1-22.76-31.88-22.76c-18.6,0-33.69,15.08-33.69,33.69
								c0,16.63,12,30.87,28.64,30.87c13.27,0,22.19-7.44,26.28-17.7C146.53,231.24,144.94,224.65,139.85,221.19z"/>
						</g>
						<g>
							<path class="st2" d="M155.27,213.76c-1.97-6.6-11.19-19.61-27.72-19.61c-15.63,0-26.47,11.77-26.47,22.35
								c0,1.96,0.12,2.84,0.6,4.69c-0.2-0.81-0.31-1.62-0.31-2.4c0-11.01,11.03-18.64,22.36-18.64c15.34,0,27.78,12.44,27.78,27.78
								c0,12.03-6.92,22.44-16.98,27.44l0,0.01c12.96-4.69,22.22-17.11,22.22-31.69C156.75,220.23,156.29,217.18,155.27,213.76z"/>
						</g>
					</g>
				</g>
			</g>
		</g>
	</g>
	<g>
		<path class="st0" d="M192.19,231.59v2.93h-18.03v-2.93h7.19v-5.74c-0.46-0.1-0.9-0.24-1.33-0.42c-0.96-0.4-1.79-0.93-2.47-1.57
			c-0.71-0.68-1.26-1.47-1.68-2.36c-0.42-0.89-0.62-1.84-0.62-2.87c0-1.01,0.21-1.95,0.62-2.84c0.41-0.88,0.97-1.67,1.68-2.35
			c0.68-0.64,1.5-1.16,2.44-1.56c0.95-0.39,1.94-0.59,2.99-0.59c1.04,0,2.03,0.2,2.96,0.59c0.92,0.39,1.74,0.91,2.44,1.56
			c0.71,0.68,1.26,1.47,1.68,2.35c0.41,0.89,0.62,1.83,0.62,2.84c0,1.03-0.2,1.98-0.62,2.87c-0.41,0.89-0.97,1.67-1.68,2.36
			c-0.7,0.64-1.52,1.17-2.44,1.57c-0.45,0.18-0.92,0.32-1.42,0.42v5.74H192.19z M187.39,218.63c0-0.58-0.12-1.14-0.35-1.68
			c-0.23-0.53-0.55-1.01-0.95-1.43c-0.4-0.38-0.87-0.69-1.4-0.94c-0.54-0.24-1.1-0.36-1.71-0.36c-0.6,0-1.17,0.12-1.71,0.36
			c-0.53,0.24-1.01,0.55-1.43,0.94c-0.38,0.42-0.7,0.9-0.94,1.43c-0.24,0.53-0.36,1.09-0.36,1.68c0,0.6,0.12,1.17,0.36,1.71
			c0.24,0.53,0.55,1.01,0.94,1.43c0.42,0.38,0.9,0.69,1.43,0.94c0.53,0.24,1.1,0.36,1.71,0.36c0.6,0,1.17-0.12,1.71-0.36
			c0.54-0.24,1-0.55,1.4-0.94c0.4-0.42,0.72-0.9,0.95-1.43C187.27,219.81,187.39,219.24,187.39,218.63z M194.21,210.27h3.32v26.93
			h-3.32V210.27z"/>
		<path class="st0" d="M210.54,232.28v-8.36h3.17v8.36h4.5v-8.36h3.2v8.36h8v2.93h-24.76v-2.93H210.54z M224.06,227.54v-12.92
			h-17.42v-2.99h20.77v15.91H224.06z"/>
		<path class="st0" d="M235.41,227.28h24.76v2.96h-10.72v6.94h-3.35v-6.94h-10.69V227.28z M240.69,214.12h14.16v-3.41h3.32v12.96
			H237.4V210.7h3.29V214.12z M254.86,217.01h-14.16v3.71h14.16V217.01z"/>
	</g>
</g>
<g>
	<g>
		<path class="st0" d="M182.29,126.85v8.39h-1.35v-6.75l-2.19,6.75h-1.3l-2.19-6.75v6.75h-1.35v-8.39h2.07l2.12,6.54l2.12-6.54
			H182.29z"/>
		<path class="st0" d="M185.62,127.51c0,0.23-0.09,0.43-0.26,0.61c-0.17,0.17-0.38,0.26-0.62,0.26c-0.24,0-0.45-0.09-0.62-0.26
			c-0.17-0.17-0.26-0.37-0.26-0.61c0-0.24,0.09-0.45,0.26-0.62c0.17-0.17,0.38-0.26,0.62-0.26c0.24,0,0.45,0.09,0.62,0.26
			C185.53,127.06,185.62,127.27,185.62,127.51z M184.06,135.23v-6.03h1.37v6.03H184.06z"/>
		<path class="st0" d="M188.57,132.2v3.03h-1.36v-6.03h1.31v0.81c0.16-0.28,0.39-0.51,0.7-0.69c0.3-0.18,0.63-0.27,0.99-0.27
			c0.71,0,1.28,0.24,1.71,0.73c0.43,0.48,0.64,1.13,0.64,1.94v3.5h-1.37v-3.15c0-0.64-0.1-1.12-0.31-1.43
			c-0.21-0.31-0.53-0.46-0.96-0.46c-0.23,0-0.44,0.07-0.66,0.22c-0.21,0.15-0.37,0.35-0.49,0.61
			C188.63,131.32,188.57,131.71,188.57,132.2z"/>
		<path class="st0" d="M195.84,127.51c0,0.23-0.09,0.43-0.26,0.61c-0.17,0.17-0.38,0.26-0.62,0.26c-0.24,0-0.45-0.09-0.62-0.26
			c-0.17-0.17-0.26-0.37-0.26-0.61c0-0.24,0.09-0.45,0.26-0.62c0.17-0.17,0.38-0.26,0.62-0.26c0.24,0,0.45,0.09,0.62,0.26
			C195.75,127.06,195.84,127.27,195.84,127.51z M194.28,135.23v-6.03h1.37v6.03H194.28z"/>
		<path class="st0" d="M196.87,134.12l0.85-0.88c0.24,0.33,0.51,0.58,0.79,0.77c0.28,0.17,0.58,0.25,0.9,0.25
			c0.3,0,0.56-0.06,0.77-0.19c0.21-0.12,0.32-0.29,0.32-0.5c0-0.21-0.1-0.37-0.31-0.49c-0.21-0.12-0.45-0.23-0.73-0.33
			c-0.33-0.1-0.67-0.22-1.01-0.35c-0.47-0.17-0.81-0.38-1.02-0.65c-0.22-0.27-0.33-0.57-0.33-0.9c0-0.5,0.23-0.92,0.7-1.27
			c0.46-0.35,1.01-0.52,1.65-0.52c0.67,0,1.22,0.16,1.65,0.48c0.22,0.17,0.39,0.38,0.52,0.63l-0.84,0.82
			c-0.11-0.19-0.24-0.35-0.4-0.47c-0.26-0.23-0.6-0.35-1-0.35c-0.23,0-0.43,0.06-0.61,0.17c-0.17,0.12-0.26,0.25-0.26,0.41
			c0,0.18,0.1,0.33,0.29,0.45c0.19,0.12,0.48,0.24,0.86,0.35c0.14,0.04,0.29,0.09,0.47,0.15c0.59,0.19,1.03,0.44,1.33,0.75
			c0.3,0.31,0.45,0.67,0.45,1.1c0,0.5-0.24,0.93-0.72,1.29c-0.48,0.36-1.1,0.55-1.84,0.55c-0.63,0-1.18-0.15-1.66-0.43
			C197.38,134.75,197.1,134.48,196.87,134.12z"/>
		<path class="st0" d="M204.86,127.27v1.94h1.31v1.11h-1.31v3.07c0,0.29,0.07,0.49,0.21,0.6c0.14,0.11,0.34,0.16,0.6,0.16h0.51v1.1
			h-0.83c-0.65,0-1.12-0.15-1.42-0.43c-0.3-0.29-0.45-0.72-0.45-1.29v-3.2h-1.04v-1.11h1.04v-1.94H204.86z"/>
		<path class="st0" d="M207.41,135.23v-6.03h1.29v0.9c0.2-0.3,0.44-0.53,0.73-0.69c0.34-0.21,0.75-0.31,1.22-0.31h0.09v1.23h-0.14
			c-0.57,0-1.02,0.17-1.36,0.52c-0.31,0.34-0.47,0.86-0.47,1.58v2.8H207.41z"/>
		<path class="st0" d="M213.73,135.01l-2.37-5.8h1.42l1.64,4.12l1.63-4.12h1.41l-3.36,8.36h-1.4L213.73,135.01z"/>
		<path class="st0" d="M224.32,135.38c-0.88,0-1.63-0.3-2.26-0.91c-0.62-0.61-0.93-1.35-0.93-2.24s0.31-1.64,0.93-2.25
			c0.62-0.61,1.37-0.91,2.26-0.91c0.89,0,1.65,0.31,2.26,0.91c0.62,0.61,0.93,1.36,0.93,2.25s-0.31,1.64-0.93,2.24
			C225.97,135.08,225.21,135.38,224.32,135.38z M224.32,134.25c0.5,0,0.92-0.19,1.28-0.57c0.36-0.38,0.54-0.86,0.54-1.45
			c0-0.58-0.18-1.06-0.54-1.45c-0.36-0.39-0.78-0.58-1.28-0.58c-0.49,0-0.91,0.19-1.27,0.58c-0.36,0.39-0.54,0.87-0.54,1.45
			c0,0.59,0.18,1.07,0.54,1.45C223.41,134.06,223.83,134.25,224.32,134.25z"/>
		<path class="st0" d="M229.09,128.57c0-0.56,0.16-0.99,0.47-1.28c0.32-0.29,0.8-0.44,1.45-0.44h0.66v1.1h-0.4
			c-0.26,0-0.45,0.05-0.6,0.16c-0.14,0.11-0.21,0.31-0.21,0.6v0.5h1.2v1.11h-1.2v4.92h-1.38v-4.92h-1.04v-1.11h1.04V128.57z"/>
	</g>
	<g>
		<path class="st0" d="M239.33,135.17h-1.41v-8.39h5.32v1.17h-3.91v2.43h3.8v1.16h-3.8V135.17z"/>
		<path class="st0" d="M247.46,135.32c-0.88,0-1.63-0.3-2.25-0.91c-0.62-0.6-0.93-1.35-0.93-2.24c0-0.89,0.31-1.64,0.93-2.25
			c0.62-0.61,1.38-0.91,2.25-0.91c0.89,0,1.65,0.3,2.26,0.91c0.62,0.61,0.93,1.36,0.93,2.25c0,0.89-0.31,1.64-0.93,2.24
			C249.1,135.02,248.35,135.32,247.46,135.32z M247.46,134.19c0.5,0,0.92-0.19,1.28-0.57c0.36-0.38,0.54-0.86,0.54-1.45
			c0-0.58-0.18-1.06-0.54-1.45c-0.36-0.39-0.78-0.58-1.28-0.58c-0.49,0-0.91,0.2-1.27,0.58c-0.36,0.39-0.54,0.87-0.54,1.45
			c0,0.58,0.18,1.07,0.54,1.45C246.55,134,246.97,134.19,247.46,134.19z"/>
		<path class="st0" d="M251.92,135.17v-6.03h1.29v0.9c0.2-0.3,0.45-0.52,0.73-0.69c0.34-0.21,0.75-0.31,1.22-0.31h0.1v1.23h-0.14
			c-0.57,0-1.02,0.17-1.36,0.52c-0.31,0.34-0.47,0.86-0.47,1.58v2.8H251.92z"/>
		<path class="st0" d="M257.21,132.77c0.08,0.37,0.25,0.67,0.52,0.9c0.38,0.35,0.89,0.53,1.53,0.53c0.67,0,1.29-0.24,1.87-0.73
			l0.41,1.01c-0.65,0.56-1.42,0.84-2.31,0.84c-1.02,0-1.85-0.29-2.49-0.87c-0.64-0.58-0.96-1.33-0.96-2.27
			c0-0.92,0.28-1.68,0.85-2.28c0.57-0.6,1.31-0.9,2.22-0.9c0.9,0,1.64,0.3,2.21,0.89c0.57,0.59,0.86,1.33,0.86,2.2
			c0,0.24-0.02,0.47-0.06,0.67H257.21z M257.18,131.68h3.35c-0.02-0.39-0.18-0.75-0.49-1.08c-0.31-0.33-0.71-0.49-1.19-0.49
			c-0.5,0-0.91,0.18-1.23,0.53C257.38,130.91,257.24,131.26,257.18,131.68z"/>
		<path class="st0" d="M264.77,127.45c0,0.23-0.09,0.44-0.26,0.61c-0.17,0.17-0.38,0.26-0.62,0.26c-0.24,0-0.45-0.09-0.62-0.26
			c-0.17-0.17-0.26-0.37-0.26-0.61c0-0.24,0.09-0.45,0.26-0.62c0.17-0.17,0.38-0.26,0.62-0.26c0.24,0,0.45,0.09,0.62,0.26
			C264.68,127,264.77,127.21,264.77,127.45z M263.21,135.17v-6.03h1.37v6.03H263.21z"/>
		<path class="st0" d="M268.82,137.57c-0.92,0-1.71-0.23-2.37-0.69l0.41-1.1c0.61,0.45,1.26,0.67,1.96,0.67
			c0.61,0,1.09-0.17,1.44-0.52c0.35-0.35,0.52-0.73,0.52-1.17v-0.36c-0.5,0.6-1.13,0.9-1.89,0.9c-0.88,0-1.6-0.31-2.14-0.94
			c-0.55-0.63-0.82-1.36-0.82-2.21s0.27-1.59,0.82-2.22c0.54-0.63,1.26-0.94,2.14-0.94c0.71,0,1.33,0.29,1.84,0.87v-0.72h1.37v5.01
			c0,1.15-0.29,2-0.85,2.57C270.68,137.29,269.87,137.57,268.82,137.57z M270.72,132.56c0.02-0.27,0.02-0.54,0-0.79
			c-0.05-0.46-0.22-0.84-0.51-1.14c-0.32-0.34-0.72-0.5-1.19-0.5c-0.53,0-0.95,0.2-1.25,0.59c-0.31,0.39-0.46,0.88-0.46,1.46
			c0,0.58,0.15,1.07,0.46,1.46c0.31,0.39,0.72,0.58,1.25,0.58c0.47,0,0.87-0.17,1.19-0.5C270.51,133.39,270.68,133.01,270.72,132.56
			z"/>
		<path class="st0" d="M275.14,132.14v3.03h-1.36v-6.03h1.31v0.81c0.16-0.28,0.39-0.51,0.7-0.69c0.3-0.18,0.63-0.27,0.98-0.27
			c0.72,0,1.29,0.24,1.72,0.73c0.43,0.49,0.64,1.13,0.64,1.94v3.5h-1.37v-3.15c0-0.64-0.1-1.12-0.31-1.43
			c-0.21-0.31-0.53-0.46-0.96-0.46c-0.22,0-0.44,0.07-0.66,0.22c-0.21,0.15-0.38,0.35-0.49,0.61
			C275.21,131.26,275.14,131.65,275.14,132.14z"/>
		<path class="st0" d="M288.39,126.79l2.94,8.39h-1.43l-0.84-2.47h-3.22l-0.84,2.47h-1.43l2.92-8.39H288.39z M286.23,131.54h2.43
			l-1.2-3.53L286.23,131.54z"/>
		<path class="st0" d="M292.29,128.51c0-0.56,0.16-0.99,0.47-1.28c0.32-0.29,0.8-0.44,1.45-0.44h0.66v1.1h-0.4
			c-0.26,0-0.45,0.06-0.59,0.16c-0.14,0.11-0.21,0.31-0.21,0.6v0.5h1.2v1.11h-1.2v4.92h-1.38v-4.92h-1.04v-1.11h1.04V128.51z"/>
		<path class="st0" d="M296.76,128.51c0-0.56,0.16-0.99,0.48-1.28c0.32-0.29,0.8-0.44,1.45-0.44h0.66v1.1h-0.4
			c-0.26,0-0.46,0.06-0.6,0.16c-0.14,0.11-0.21,0.31-0.21,0.6v0.5h1.2v1.11h-1.2v4.92h-1.38v-4.92h-1.04v-1.11h1.04V128.51z"/>
		<path class="st0" d="M302.99,131.29c0.46,0,0.93,0,1.42,0c0-0.39-0.15-0.69-0.46-0.89c-0.31-0.2-0.75-0.29-1.33-0.29h-0.04
			c-0.54,0-1.12,0.13-1.73,0.39l-0.35-1.07c0.63-0.27,1.33-0.41,2.09-0.42h0.02c1.01,0,1.79,0.19,2.33,0.58
			c0.54,0.39,0.81,1.01,0.81,1.86v3.73h-1.3v-0.66c-0.26,0.26-0.57,0.45-0.95,0.59c-0.37,0.14-0.75,0.21-1.14,0.21
			c-0.72,0-1.31-0.19-1.75-0.57c-0.45-0.38-0.67-0.85-0.67-1.4c0-0.62,0.28-1.13,0.83-1.53
			C301.31,131.46,302.04,131.29,302.99,131.29z M302.62,134.24c0.35,0,0.7-0.09,1.05-0.26c0.35-0.17,0.59-0.37,0.75-0.6v-1.02
			c-0.45,0-0.86,0-1.22,0c-0.69,0-1.17,0.09-1.44,0.27c-0.27,0.2-0.4,0.44-0.4,0.72c0,0.26,0.11,0.47,0.34,0.64
			C301.92,134.15,302.23,134.24,302.62,134.24z"/>
		<path class="st0" d="M309.04,127.45c0,0.23-0.08,0.44-0.26,0.61c-0.17,0.17-0.38,0.26-0.62,0.26c-0.24,0-0.45-0.09-0.62-0.26
			c-0.17-0.17-0.26-0.37-0.26-0.61c0-0.24,0.09-0.45,0.26-0.62c0.17-0.17,0.38-0.26,0.62-0.26c0.24,0,0.45,0.09,0.62,0.26
			C308.96,127,309.04,127.21,309.04,127.45z M307.49,135.17v-6.03h1.37v6.03H307.49z"/>
		<path class="st0" d="M310.63,135.17v-6.03h1.29v0.9c0.2-0.3,0.45-0.52,0.73-0.69c0.34-0.21,0.75-0.31,1.22-0.31h0.09v1.23h-0.14
			c-0.57,0-1.02,0.17-1.36,0.52c-0.31,0.34-0.47,0.86-0.47,1.58v2.8H310.63z"/>
		<path class="st0" d="M314.47,134.05l0.86-0.88c0.24,0.33,0.5,0.58,0.79,0.77c0.28,0.17,0.58,0.25,0.9,0.25
			c0.3,0,0.56-0.06,0.78-0.19c0.21-0.13,0.32-0.29,0.32-0.5c0-0.21-0.1-0.37-0.31-0.49c-0.21-0.12-0.45-0.23-0.73-0.33
			c-0.33-0.1-0.66-0.22-1.01-0.35c-0.47-0.17-0.81-0.39-1.02-0.65c-0.22-0.26-0.33-0.56-0.33-0.9c0-0.5,0.23-0.92,0.7-1.27
			c0.46-0.35,1.01-0.52,1.65-0.52c0.67,0,1.22,0.16,1.65,0.48c0.22,0.17,0.39,0.38,0.52,0.63l-0.84,0.82
			c-0.11-0.19-0.24-0.35-0.4-0.47c-0.26-0.23-0.6-0.35-1-0.35c-0.23,0-0.44,0.06-0.61,0.17c-0.17,0.12-0.26,0.26-0.26,0.42
			c0,0.18,0.1,0.33,0.29,0.45c0.19,0.12,0.48,0.24,0.85,0.35c0.14,0.04,0.29,0.09,0.47,0.14c0.59,0.19,1.03,0.44,1.33,0.75
			c0.3,0.31,0.45,0.67,0.45,1.09c0,0.5-0.24,0.93-0.72,1.29c-0.48,0.37-1.09,0.55-1.84,0.55c-0.63,0-1.18-0.14-1.66-0.43
			C314.98,134.69,314.71,134.42,314.47,134.05z"/>
	</g>
	<g>
		<g>
			<g>
				<g>
					<g>
						<g>
							<path class="st1" d="M139.85,112.38c-5.68-3.86-12.95-2.29-16.77,3.52c-3.19,4.85-8,5.45-9.87,5.45
								c-6.07,0-10.23-4.27-11.46-8.69h0c-0.01-0.04-0.02-0.08-0.03-0.12c-0.01-0.05-0.03-0.1-0.04-0.15
								c-0.48-1.84-0.6-2.73-0.6-4.69c0-10.57,10.85-22.35,26.47-22.35c16,0,25.16,12.18,27.51,18.95
								c-0.04-0.12-0.08-0.24-0.12-0.36c-4.54-13.24-17.1-22.76-31.88-22.76c-18.6,0-33.69,15.08-33.69,33.69
								c0,16.63,12,30.87,28.64,30.87c13.27,0,22.19-7.44,26.28-17.7C146.53,122.43,144.94,115.84,139.85,112.38z"/>
						</g>
						<g>
							<path class="st2" d="M155.27,104.95c-1.97-6.6-11.19-19.61-27.72-19.61c-15.63,0-26.47,11.77-26.47,22.35
								c0,1.96,0.12,2.84,0.6,4.69c-0.2-0.81-0.31-1.62-0.31-2.4c0-11.01,11.03-18.64,22.36-18.64c15.34,0,27.78,12.44,27.78,27.78
								c0,12.03-6.92,22.44-16.98,27.44l0,0.01c12.96-4.69,22.22-17.11,22.22-31.69C156.75,111.42,156.29,108.37,155.27,104.95z"/>
						</g>
					</g>
				</g>
			</g>
		</g>
	</g>
	<g>
		<path class="st0" d="M189.87,112.46v2.72h-16.71v-2.72h6.66v-5.32c-0.43-0.09-0.84-0.22-1.23-0.39c-0.89-0.37-1.66-0.86-2.29-1.45
			c-0.66-0.63-1.17-1.36-1.55-2.18c-0.38-0.82-0.58-1.71-0.58-2.66c0-0.93,0.19-1.81,0.58-2.63c0.38-0.82,0.9-1.55,1.55-2.18
			c0.63-0.6,1.39-1.08,2.27-1.44c0.88-0.36,1.8-0.55,2.77-0.55c0.97,0,1.89,0.18,2.74,0.55c0.86,0.36,1.61,0.85,2.27,1.44
			c0.65,0.64,1.17,1.36,1.55,2.18c0.38,0.82,0.57,1.7,0.57,2.63c0,0.95-0.19,1.84-0.57,2.66c-0.38,0.82-0.9,1.55-1.55,2.18
			c-0.65,0.6-1.41,1.08-2.27,1.45c-0.41,0.17-0.85,0.3-1.32,0.39v5.32H189.87z M185.42,100.46c0-0.54-0.11-1.06-0.32-1.55
			c-0.22-0.49-0.51-0.94-0.88-1.33c-0.37-0.35-0.81-0.64-1.3-0.87c-0.5-0.22-1.02-0.34-1.58-0.34c-0.56,0-1.09,0.11-1.58,0.34
			c-0.49,0.22-0.94,0.51-1.33,0.87c-0.36,0.39-0.64,0.84-0.87,1.33c-0.23,0.49-0.34,1.01-0.34,1.55c0,0.56,0.11,1.09,0.34,1.58
			c0.22,0.49,0.51,0.94,0.87,1.33c0.39,0.36,0.83,0.64,1.33,0.87c0.5,0.22,1.02,0.34,1.58,0.34c0.56,0,1.09-0.11,1.58-0.34
			c0.5-0.22,0.93-0.51,1.3-0.87c0.37-0.39,0.66-0.83,0.88-1.33C185.31,101.55,185.42,101.02,185.42,100.46z M191.75,92.7h3.08v24.97
			h-3.08V92.7z"/>
		<path class="st0" d="M206.88,113.11v-7.75h2.94v7.75h4.17v-7.75h2.97v7.75h7.42v2.72h-22.95v-2.72H206.88z M219.42,108.71V96.73
			h-16.15v-2.77h19.26v14.75H219.42z"/>
		<path class="st0" d="M229.94,108.47h22.96v2.74h-9.94v6.44h-3.11v-6.44h-9.91V108.47z M234.84,96.27h13.13v-3.16h3.08v12.01
			h-19.26V93.11h3.05V96.27z M247.96,98.96h-13.13v3.44h13.13V98.96z"/>
	</g>
</g>
</svg>
